<svg xmlns="http://www.w3.org/2000/svg" xmlns:xlink="http://www.w3.org/1999/xlink" width="283" viewBox="0 0 212.25 48" height="64" version="1.0">
  <defs>
    <clipPath id="a">
      <path d="M14.742 4.703H52.36V42.32H14.742Zm0 0"/>
    </clipPath>
    <clipPath id="b">
      <path d="M52.36 23.512c0 .613-.032 1.23-.09 1.843a19.39 19.39 0 0 1-.72 3.614c-.179.59-.386 1.172-.624 1.738-.235.57-.496 1.125-.79 1.668a17.812 17.812 0 0 1-.949 1.586 18.699 18.699 0 0 1-2.336 2.848 19.53 19.53 0 0 1-1.367 1.242 19.4 19.4 0 0 1-3.066 2.047c-.543.289-1.102.554-1.668.789a18.793 18.793 0 0 1-12.66.621 19.57 19.57 0 0 1-1.738-.621c-.567-.235-1.125-.5-1.668-.79a18.03 18.03 0 0 1-1.582-.949 18.597 18.597 0 0 1-2.852-2.34 18.698 18.698 0 0 1-2.336-2.847 18.094 18.094 0 0 1-.95-1.586 17.564 17.564 0 0 1-.788-1.668 18.047 18.047 0 0 1-1.07-3.527 19.39 19.39 0 0 1-.274-1.825 19.27 19.27 0 0 1-.09-1.843c0-.617.031-1.23.09-1.844a19.28 19.28 0 0 1 .719-3.617c.18-.59.386-1.168.625-1.738.234-.57.496-1.125.789-1.668.289-.543.605-1.07.95-1.582a18.698 18.698 0 0 1 2.336-2.852c.436-.438.894-.848 1.37-1.238a18.642 18.642 0 0 1 6.469-3.461 18.794 18.794 0 0 1 10.922 0c.59.18 1.168.386 1.738.62.566.24 1.125.5 1.668.79a19.226 19.226 0 0 1 3.066 2.05 18.698 18.698 0 0 1 3.703 4.09c.344.512.66 1.04.95 1.583.293.543.554 1.097.789 1.668a18.432 18.432 0 0 1 1.07 3.527c.121.605.211 1.215.274 1.828.058.613.09 1.227.09 1.844Zm0 0"/>
    </clipPath>
    <clipPath id="d">
      <path d="M20.16 10.117h26.774v26.778H20.16Zm0 0"/>
    </clipPath>
    <linearGradient x1="0" gradientTransform="translate(14.743 4.702) scale(37.61633)" y1="0" x2="1.005" gradientUnits="userSpaceOnUse" y2=".995" xlink:type="simple" xlink:actuate="onLoad" id="c" xlink:show="other">
      <stop stop-color="#90F" offset="0"/>
      <stop stop-color="#90F" offset=".016"/>
      <stop stop-color="#9801FF" offset=".031"/>
      <stop stop-color="#9701FE" offset=".047"/>
      <stop stop-color="#9601FE" offset=".063"/>
      <stop stop-color="#9502FE" offset=".078"/>
      <stop stop-color="#9402FD" offset=".094"/>
      <stop stop-color="#9302FD" offset=".109"/>
      <stop stop-color="#9203FD" offset=".125"/>
      <stop stop-color="#9103FC" offset=".141"/>
      <stop stop-color="#9003FC" offset=".156"/>
      <stop stop-color="#8F04FC" offset=".172"/>
      <stop stop-color="#8F04FB" offset=".188"/>
      <stop stop-color="#8E04FB" offset=".203"/>
      <stop stop-color="#8D05FB" offset=".219"/>
      <stop stop-color="#8C05FB" offset=".234"/>
      <stop stop-color="#8B05FA" offset=".25"/>
      <stop stop-color="#8A06FA" offset=".266"/>
      <stop stop-color="#8906FA" offset=".281"/>
      <stop stop-color="#8807F9" offset=".297"/>
      <stop stop-color="#8707F9" offset=".313"/>
      <stop stop-color="#8607F9" offset=".328"/>
      <stop stop-color="#8508F8" offset=".344"/>
      <stop stop-color="#8508F8" offset=".359"/>
      <stop stop-color="#8408F8" offset=".375"/>
      <stop stop-color="#8309F7" offset=".391"/>
      <stop stop-color="#8209F7" offset=".406"/>
      <stop stop-color="#8109F7" offset=".422"/>
      <stop stop-color="#800AF7" offset=".438"/>
      <stop stop-color="#7F0AF6" offset=".453"/>
      <stop stop-color="#7E0AF6" offset=".469"/>
      <stop stop-color="#7D0BF6" offset=".484"/>
      <stop stop-color="#7C0BF5" offset=".498"/>
      <stop stop-color="#7C0BF5" offset=".5"/>
      <stop stop-color="#7B0CF5" offset=".502"/>
      <stop stop-color="#7B0CF5" offset=".516"/>
      <stop stop-color="#7B0CF5" offset=".531"/>
      <stop stop-color="#7A0CF4" offset=".547"/>
      <stop stop-color="#790DF4" offset=".563"/>
      <stop stop-color="#780DF4" offset=".578"/>
      <stop stop-color="#770DF3" offset=".594"/>
      <stop stop-color="#760EF3" offset=".609"/>
      <stop stop-color="#750EF3" offset=".625"/>
      <stop stop-color="#740EF3" offset=".641"/>
      <stop stop-color="#730FF2" offset=".656"/>
      <stop stop-color="#720FF2" offset=".672"/>
      <stop stop-color="#710FF2" offset=".688"/>
      <stop stop-color="#7110F1" offset=".703"/>
      <stop stop-color="#7010F1" offset=".719"/>
      <stop stop-color="#6F10F1" offset=".734"/>
      <stop stop-color="#6E11F0" offset=".75"/>
      <stop stop-color="#6D11F0" offset=".766"/>
      <stop stop-color="#6C12F0" offset=".781"/>
      <stop stop-color="#6B12EF" offset=".797"/>
      <stop stop-color="#6A12EF" offset=".813"/>
      <stop stop-color="#6913EF" offset=".828"/>
      <stop stop-color="#6813EF" offset=".844"/>
      <stop stop-color="#6713EE" offset=".859"/>
      <stop stop-color="#6714EE" offset=".875"/>
      <stop stop-color="#6614EE" offset=".891"/>
      <stop stop-color="#6514ED" offset=".906"/>
      <stop stop-color="#6415ED" offset=".922"/>
      <stop stop-color="#6315ED" offset=".938"/>
      <stop stop-color="#6215EC" offset=".953"/>
      <stop stop-color="#6116EC" offset=".969"/>
      <stop stop-color="#6016EC" offset=".984"/>
      <stop stop-color="#5F16EB" offset="1"/>
    </linearGradient>
  </defs>
  <g clip-path="url(#a)">
    <g clip-path="url(#b)">
      <path fill="url(#c)" d="M14.742 4.703V42.32H52.36V4.703Zm0 0"/>
    </g>
  </g>
  <g clip-path="url(#d)">
    <path fill="#FFF" d="M46.918 23.723v-.528a18.51 18.51 0 0 0-.027-.59v-.066c0-.039-.008-.094-.008-.16a7.944 7.944 0 0 0-.106-.863 8.145 8.145 0 0 0-.101-.618c0-.011 0-.02-.008-.027 0-.012 0-.02-.012-.039a8.18 8.18 0 0 0-.16-.676 12.704 12.704 0 0 0-.383-1.246 5.03 5.03 0 0 0-.16-.426 2.326 2.326 0 0 1-.074-.187c-.02-.047-.047-.102-.066-.156l-.008-.012c-.059-.129-.125-.27-.18-.383-.008-.012-.008-.027-.02-.039a5.514 5.514 0 0 0-.253-.496 11.024 11.024 0 0 0-.61-1.023v-.008c-.082-.14-.215-.328-.328-.489-.008-.011-.008-.02-.02-.02-.074-.1-.242-.339-.476-.628a.214.214 0 0 1-.027-.04 4.953 4.953 0 0 1-.235-.28c-.011-.008-.011-.016-.02-.016-.132-.16-.32-.36-.44-.488l-.008-.012-.012-.008c0-.011-.008-.011-.008-.011-.086-.094-.2-.196-.32-.317-.008-.012-.028-.027-.035-.039-.106-.094-.22-.207-.34-.316a9.882 9.882 0 0 0-.348-.301c-.008-.012-.027-.02-.035-.04-.106-.085-.219-.179-.34-.26-.02-.02-.035-.028-.066-.048-.028-.02-.047-.039-.075-.058a1.673 1.673 0 0 0-.148-.102c-.059-.039-.113-.086-.172-.121-.082-.066-.176-.121-.27-.188-.039-.027-.074-.058-.12-.074-.106-.066-.22-.14-.329-.207l-.086-.058a13.854 13.854 0 0 0-.347-.196c-.02-.011-.04-.02-.047-.027-.008 0-.008-.012-.02-.012-.008 0-.008-.008-.02-.008-.007 0-.007-.011-.015-.011a.952.952 0 0 1-.16-.094c-.02-.008-.04-.016-.059-.027-.046-.028-.093-.047-.14-.075-.028-.007-.047-.027-.074-.039-.028-.015-.067-.027-.094-.047a14.882 14.882 0 0 0-1.059-.476.116.116 0 0 0-.058-.02c-.196-.074-.403-.148-.618-.226a6.707 6.707 0 0 0-.675-.203c-.215-.059-.442-.125-.676-.172-.02 0-.027-.008-.047-.008h-.008a10.79 10.79 0 0 0-.93-.168c-.011 0-.027 0-.039-.012a11.979 11.979 0 0 0-.89-.093 16.633 16.633 0 0 0-1.653 0l-.101.011h-.047c-.059 0-.113.008-.168.008-.207.012-.441.04-.668.066-.148.02-.3.04-.441.067a11.03 11.03 0 0 0-.598.113l-.078.016c-.016 0-.035.011-.063.02a4.1 4.1 0 0 0-.433.105c-.02.008-.04.008-.067.015-.328.086-.664.172-.937.282-.188.058-.356.125-.516.187-.027.012-.054.02-.086.04-.14.058-.28.105-.394.16-.625.28-1.106.523-1.442.73-.18.105-.386.226-.582.36a1.176 1.176 0 0 0-.152.1c-.234.16-.457.321-.645.47a7.924 7.924 0 0 0-.406.328 9.19 9.19 0 0 0-.75.656c-.035.039-.074.074-.12.121-.106.094-.2.2-.294.293-.094.102-.187.207-.281.3a9.098 9.098 0 0 0-.43.505 12.2 12.2 0 0 0-.636.847c.007-.02.007-.011 0 0-.02.028-.047.063-.079.121-.007.008-.015.028-.027.036 0 0 0 .011-.008.011a7.36 7.36 0 0 0-.375.602c-.16.262-.32.55-.453.824l-.082.168a9.54 9.54 0 0 0-.32.723c-.008.02-.008.039-.02.054-.008.032-.027.059-.035.086a14.48 14.48 0 0 0-.375 1.078c-.02.067-.047.133-.066.2-.067.207-.121.449-.188.71-.086.387-.16.782-.199 1.09-.008.094-.027.196-.035.301-.02.196-.047.403-.059.57 0 .047-.008.094-.008.141 0 .047-.007.106-.007.152-.012.149-.012.329-.012.516v.336c0 .3.02.695.047.957l.02.168c0 .031.007.066.007.094.012.133.031.254.04.367 0 .027.007.059.007.086 0 .02.012.035.012.055a10.821 10.821 0 0 0 .363 1.719l.113.374v.008c0 .012 0 .012.012.02.121.394.242.703.348.965.027.078.062.152.082.218a.27.27 0 0 1 .027.075l.031.054c.047.121.121.281.188.414.062.14.14.29.215.442.02.035.035.074.054.113.106.195.219.39.293.516.102.168.207.336.317.503.078.106.187.282.347.508.121.18.293.395.367.48v.009s0 .007.008.007c.172.22.246.313.375.461.246.282.414.461.461.508.133.14.32.328.489.477a.047.047 0 0 0 .02.02c.007.007.026.019.034.027.125.113.281.246.422.367l.113.101c.188.16.434.36.641.508a8.6 8.6 0 0 0 .469.328l.11.075c.253.18.6.374.808.488.008.011.02.011.027.02.012 0 .012.007.02.007.187.106.414.227.656.34l.113.055c.227.105.555.261.817.355h.007c.489.2.93.34 1.297.442.008 0 .008 0 .02.011.11.035.25.067.39.102.2.047.36.086.453.105.196.047.395.075.583.11.156.03.308.058.468.066.29.047.63.074.926.086.285.02.5.02.602.02h.328c.406 0 .93-.04 1.39-.094h.036c.093-.012.18-.02.265-.04a11.947 11.947 0 0 0 1.574-.32c.067-.015.133-.035.207-.054.086-.02.16-.047.235-.067a9.959 9.959 0 0 0 1.539-.57c.035-.02.074-.04.12-.059.087-.035.161-.074.235-.101a10.48 10.48 0 0 0 1.453-.817c.04-.027.086-.058.133-.086.094-.054.18-.12.274-.175a15.673 15.673 0 0 0 1.293-1.016c.101-.094.215-.195.32-.3.008-.008.02-.008.02-.016.335-.301.777-.782 1.097-1.184a.123.123 0 0 1 .035-.047c.012-.02.028-.027.04-.039.16-.187.316-.41.488-.637.203-.289.422-.609.664-1.03.058-.106.12-.216.18-.329.222-.414.43-.844.609-1.277 0-.008.008-.008.008-.02 0-.008.011-.008.011-.015 0-.012.008-.02.008-.02.18-.422.367-.969.469-1.379l.027-.105a2.24 2.24 0 0 0 .078-.29c.082-.34.157-.675.196-.902 0-.008 0-.027.007-.035.047-.266.094-.547.114-.781l.011-.14c.008-.083.016-.169.028-.255.008-.062.008-.12.02-.175.007-.235.015-.547.015-.797Zm-.375-2.235v.02c0 .02 0 .027.012.047l.008.082v.011l-.083-.199v-.035c0-.133-.011-.273-.02-.402.028.156.056.308.075.437 0 .012.008.02.008.04Zm-.047 4.336c.012-.152.012-.312.012-.469v-.039a3.09 3.09 0 0 0 .094-.226c-.028.246-.067.5-.106.723v.011Zm-11.18 10.723c-.246.027-.507.055-.77.074-.253.008-.507.008-.76 0 .308-.094.6-.226.882-.383.375-.226.71-.508 1.004-.847a7.52 7.52 0 0 0 1.726.328c.036 0 .075.011.114.011h.41a8.34 8.34 0 0 1-2.277.77c-.125.02-.227.027-.329.047Zm-10.32-4.035c-.012-.028-.031-.055-.039-.086 0-.008-.008-.008-.008-.016.488.582.992 1.106 1.528 1.594a5.671 5.671 0 0 1-.864-.387 6.064 6.064 0 0 1-.535-.898c-.02-.067-.055-.133-.082-.207Zm17.11-18.004c.011.02.011.027.019.047a.57.57 0 0 1 .027.074 18.28 18.28 0 0 0-1.535-1.613c.281.093.57.226.86.386a5.459 5.459 0 0 1 .628 1.106Zm-17.57 1.117c.007-.04.019-.074.026-.102.012-.039.02-.078.028-.113l.031-.105c.008-.035.027-.075.035-.114a.77.77 0 0 0 .028-.101c.011-.04.03-.074.039-.113.007-.028.02-.067.027-.094.02-.047.04-.082.047-.13.012-.03.02-.046.027-.077a5.88 5.88 0 0 1 .594-1.098 9.344 9.344 0 0 1 1.07-.523 11.673 11.673 0 0 0-1.933 2.71c-.02 0-.047.008-.067.008v-.015a.547.547 0 0 0 .047-.133Zm21.042 4.766c.02.02.027.039.04.054.027.04.054.078.081.114.012.02.028.039.04.058a.901.901 0 0 1 .074.11c.007.02.019.039.039.058.027.035.046.074.074.113.008.02.02.036.027.055.027.04.047.074.074.113.012.02.02.04.032.055.015.04.046.078.062.113.012.02.02.04.031.059.016.035.035.074.055.11.008.019.02.038.027.058.012.008.012.02.02.027 0 .395-.027.75-.094 1.09-.18-.77-.414-1.55-.703-2.32.008.012.02.031.027.039.04.02.067.055.094.094ZM29.422 35.59h-.195c-.04 0-.086 0-.122-.012-.03 0-.046 0-.078-.008h-.035a12.33 12.33 0 0 1-1.707-1.164 2.395 2.395 0 0 0 .61 0c.535.461 1.097.856 1.687 1.192h-.086c-.027-.008-.047-.008-.074-.008Zm16.86-10.313a3.362 3.362 0 0 1-.196.395c-.02-.59-.094-1.18-.215-1.774.094-.14.176-.28.242-.441.102.61.16 1.223.168 1.82ZM31.636 11.91c.054.02.113.035.168.055.03.012.058.02.078.027.047.02.101.04.148.059-.226-.02-.441-.04-.656-.047.035-.047.074-.106.113-.152.016.011.035.011.055.02.039.019.066.026.094.038Zm3.894 23.22c-.011 0-.02-.008-.027-.008-.066-.02-.125-.047-.188-.066-.011 0-.02-.008-.039-.008-.066-.02-.12-.047-.187-.078-.008 0-.008-.008-.02-.008.215.02.434.039.657.047-.036.047-.075.094-.114.148a.673.673 0 0 1-.082-.027Zm-13.265-7.422c.027.02.047.04.074.066.027.028.066.059.094.086.027.028.054.047.086.075.035.027.062.054.101.086a.654.654 0 0 0 .094.074c.039.027.066.054.101.082.032.02.067.047.094.066.04.028.078.059.106.074l.093.067c.04.027.075.058.114.078.035.016.066.047.101.062.04.032.074.047.113.079.04.015.067.046.102.062.04.031.078.047.125.078.027.016.063.035.094.055.015.008.027.02.047.027a.654.654 0 0 0 .129.074c-.395.04-.739.059-1.051.059-.223-.414-.43-.828-.617-1.25ZM28.07 16.59c-.402.105-.804.226-1.199.36a2.402 2.402 0 0 0-.656.234c-.113.046-.227.093-.34.128-.074.028-.14.06-.215.086a3.121 3.121 0 0 0-.289.13c-.086.038-.168.077-.246.113-.082.039-.168.086-.254.125-.082.047-.176.082-.262.129-.074.039-.148.085-.222.12a.843.843 0 0 1-.14.079v-.395c0-.047 0-.086.007-.133 0-.046 0-.086.008-.132 0-.047.011-.082.011-.13 0-.038.008-.085.008-.12 0-.047.012-.086.012-.133 0-.04.008-.086.008-.121 0-.04.008-.086.02-.121 0-.02 0-.04.007-.059.121-.281.254-.563.395-.824 1.004-.121 2.148.101 3.347.664Zm16.86 7.95c-.223.14-.477.222-.75.28a16.642 16.642 0 0 0-.282-3.668c.215-.16.414-.312.602-.46a12.705 12.705 0 0 1 1.145 3.18c-.2.273-.434.495-.715.667ZM34.18 12.312c.027-.02.066-.028.093-.047l.133-.055c.028-.02.063-.027.094-.047.047-.02.082-.039.129-.059.027-.007.059-.027.094-.035.047-.02.086-.039.132-.058a.37.37 0 0 0 .083-.035c.05-.02.097-.04.132-.059.028-.008.059-.02.086-.027.047-.02.094-.04.14-.047.028-.008.056-.02.075-.028.047-.02.094-.027.14-.046a.175.175 0 0 1 .075-.02c.047-.02.094-.027.14-.04.028-.007.047-.007.075-.015.047-.011.094-.03.14-.039.02-.008.047-.008.067-.02.047-.007.094-.027.14-.034.02-.012.047-.012.067-.012.047-.008.094-.02.152-.027.016 0 .035-.008.063-.008.047-.012.105-.02.152-.032.02 0 .035-.007.055-.007.047-.008.105-.02.152-.02.016 0 .035 0 .055-.008.047-.011.101-.011.148-.02.02 0 .04 0 .059-.007h.035c.648.336 1.258.75 1.84 1.219a2.212 2.212 0 0 0-.703.28 2.39 2.39 0 0 0-.743.696 16.606 16.606 0 0 0-3.46-1.258c.011-.011.02-.011.027-.02.047-.026.094-.046.133-.066Zm9.117 16.128c-.047.028-.094.067-.149.094a.663.663 0 0 1-.093.055h-.008v-.14c0-.04 0-.087-.012-.122 0-.047-.008-.105-.008-.152 0-.035-.011-.082-.011-.121 0-.047-.008-.102-.008-.149 0-.039-.008-.086-.008-.12 0-.06-.012-.106-.012-.161 0-.04-.008-.086-.008-.121-.011-.059-.011-.106-.02-.16-.007-.04-.007-.086-.019-.125-.007-.055-.007-.102-.02-.157-.007-.039-.007-.085-.015-.125l-.031-.167c-.008-.036-.008-.075-.016-.122-.011-.054-.02-.113-.03-.168-.009-.039-.009-.074-.017-.113-.011-.055-.019-.113-.03-.18a.528.528 0 0 1-.016-.113c-.012-.054-.02-.12-.04-.176-.007-.039-.019-.074-.019-.113-.008-.055-.027-.12-.035-.18a1.746 1.746 0 0 1-.031-.101c-.016-.067-.028-.121-.047-.188-.008-.039-.02-.066-.028-.101-.02-.067-.027-.125-.046-.192-.008-.035-.02-.062-.028-.101a1.45 1.45 0 0 0-.047-.16c.274.093.535.16.797.199.18.027.356.047.528.047.062 0 .128 0 .187-.012a15.709 15.709 0 0 1-.52 3.352.997.997 0 0 0-.082.054c-.011 0-.027.02-.058.04Zm-.91.516c-.094.047-.188.094-.29.14-.074.036-.14.075-.214.114-.094.047-.2.082-.293.129a1.812 1.812 0 0 1-.235.105 8.459 8.459 0 0 0-.28.114c-.083.035-.169.074-.263.101-.085.027-.167.067-.253.094l-.301.113c-.074.028-.149.047-.215.074-.113.04-.234.075-.348.114-.054.02-.113.027-.168.047-.14.035-.273.082-.414.12-.027.008-.066.02-.101.028-.086.02-.16.04-.246.066-.082-.046-.176-.093-.27-.14a22.966 22.966 0 0 0 3.234-5.742c.172.093.34.168.5.234.008.02.008.039.016.059 0 .007.012.015.012.027.02.082.047.168.066.254 0 .008.008.027.008.035.02.086.04.16.066.246 0 .02.008.027.008.047.02.074.04.16.059.234 0 .02.008.035.008.055.02.074.027.152.047.227 0 .02.007.035.007.066.02.074.032.14.047.215 0 .02.012.047.012.066.008.063.027.14.039.207 0 .028.008.055.008.074.008.067.02.13.027.196 0 .027.012.058.012.086.008.066.016.12.027.187 0 .028.008.067.008.094a.88.88 0 0 1 .02.176c0 .039.007.066.007.105.012.055.012.113.02.168 0 .04.012.074.012.113.007.055.007.102.007.16 0 .036.008.083.008.122 0 .047.012.101.012.148 0 .047.008.086.008.133 0 .047 0 .094.011.14a.7.7 0 0 0 .008.133v.254c-.086.047-.168.094-.261.14-.02.048-.094.083-.172.122Zm-9.024 5.535a15.97 15.97 0 0 1-3.629-1.285c.11-.18.203-.375.282-.594.093-.234.156-.476.203-.75.047.047.093.086.133.133l.054.055.153.152c.02.02.046.035.066.055.047.047.102.094.148.14.02.02.047.04.067.067.047.047.101.094.148.133.032.015.047.047.078.062.047.047.094.086.149.125.027.02.055.047.074.067.047.035.094.082.14.12.028.02.06.048.087.067.047.035.093.074.14.11.028.03.055.046.086.078.047.035.094.074.13.101.026.027.066.047.093.074.047.04.086.067.133.094.035.027.066.047.101.074.04.032.086.067.133.094.035.031.066.047.102.078.039.028.086.055.12.082.04.028.079.047.114.078.039.028.074.055.121.075.04.027.078.046.113.074.04.027.078.047.114.074.039.027.086.047.12.074.04.02.079.047.114.067.04.027.086.047.121.074.04.02.078.039.113.066-.035.02-.074.04-.101.059l-.02.027Zm1.953-1.304c-.066.046-.125.101-.187.148-.012.012-.031.02-.04.031-.054.047-.112.082-.167.13-.02.019-.04.026-.059.046-.054.039-.101.074-.16.113-.027.02-.047.04-.074.055-.047.039-.094.066-.14.105-.028.02-.055.036-.094.067-.047.027-.094.054-.13.094-.038.02-.066.046-.105.066-.047.027-.082.055-.129.082-.039.02-.078.047-.113.066-.04.028-.086.047-.125.075-.035.02-.063.039-.102.058-.027-.011-.046-.031-.074-.039-.047-.027-.105-.055-.152-.086-.028-.015-.055-.035-.082-.047a1.794 1.794 0 0 0-.153-.082l-.082-.058a.978.978 0 0 1-.14-.094 1.05 1.05 0 0 1-.086-.055c-.047-.027-.094-.066-.14-.093-.028-.02-.055-.04-.087-.06-.047-.026-.093-.062-.14-.093a.381.381 0 0 1-.082-.062c-.047-.04-.094-.067-.141-.106-.027-.02-.059-.047-.086-.066-.047-.035-.094-.063-.14-.102-.028-.02-.055-.047-.083-.066-.046-.035-.093-.074-.14-.102-.031-.02-.059-.047-.086-.066-.047-.04-.094-.074-.14-.113a.727.727 0 0 1-.087-.075l-.14-.113a.704.704 0 0 1-.082-.074c-.047-.04-.094-.074-.141-.121-.031-.031-.059-.047-.086-.078-.047-.035-.094-.082-.14-.121-.028-.028-.055-.047-.086-.075-.047-.039-.094-.086-.13-.12-.027-.028-.058-.048-.074-.075-.046-.047-.097-.086-.144-.133l-.074-.074-.141-.14c-.027-.032-.047-.047-.074-.079a5.56 5.56 0 0 0 .047-.691 23.81 23.81 0 0 0 3.058.195c1.211 0 2.39-.094 3.528-.262 0 .32-.008.618-.04.918-.484.5-.992.95-1.507 1.372-.02-.008-.02-.008-.028 0Zm-3.293-19.524c.063-.047.122-.094.188-.14.016-.008.027-.02.047-.028.054-.039.11-.086.168-.121a.222.222 0 0 1 .066-.047c.055-.039.102-.078.156-.105a.854.854 0 0 0 .079-.055c.046-.031.093-.066.14-.094.028-.02.067-.039.094-.058.047-.028.094-.055.129-.082.039-.02.066-.047.105-.067l.13-.074c.03-.02.066-.04.093-.059.031.02.059.04.094.059l.133.074c.039.02.074.047.101.067.04.027.086.046.125.074.035.02.074.047.113.066.036.028.082.047.121.074.036.028.075.047.114.075.035.027.074.058.12.074.036.031.075.047.114.078.035.027.074.055.121.082.035.027.074.059.114.074a.738.738 0 0 0 .12.086c.036.028.075.055.114.086.035.027.074.055.113.082l.11.086a.613.613 0 0 1 .113.094 1.2 1.2 0 0 1 .105.082c.035.031.075.066.11.094.039.03.066.058.105.086.035.027.074.066.113.093.036.028.063.059.102.086l.113.102a.97.97 0 0 1 .102.094c.039.039.078.066.113.105.04.027.066.063.106.094.035.035.074.074.109.101.039.028.066.067.105.094.036.04.075.074.114.113.027.028.062.067.093.094.036.035.082.074.122.121l.074.074a5.612 5.612 0 0 0-.047.696 23.545 23.545 0 0 0-6.586.066c0-.32.008-.629.039-.922a15.896 15.896 0 0 1 1.734-1.535c.02-.031.028-.039.04-.039Zm-8.894 8.508c.215-.016.45-.016.683.012.282.046.575.12.872.242.02.058.03.105.046.16.012.047.032.094.04.14.02.055.027.102.046.16.02.048.028.094.047.141.02.055.04.102.047.16.02.047.027.094.047.141.02.055.04.102.055.16.011.016.011.028.02.047a21.8 21.8 0 0 0-.376 1.254c0 .012-.008.031-.008.04a.928.928 0 0 0-.027.12c-.453.281-.863.555-1.23.817a16.068 16.068 0 0 1-.262-3.594Zm.676-3.582c.047-.027.093-.059.148-.094a.654.654 0 0 1 .094-.058h.008v.141c0 .046 0 .093.011.151 0 .047 0 .086.008.133 0 .047.012.094.012.149 0 .047.008.086.008.133 0 .046.008.093.008.148 0 .047.011.094.011.133a.68.68 0 0 0 .02.148c.008.047.008.094.02.14.007.048.007.095.015.153.012.047.012.094.02.14.011.048.011.095.019.141.008.047.008.094.02.141.007.047.02.094.02.14.007.048.015.094.015.141l.031.14c.008.048.016.095.027.142.008.046.02.093.028.14.007.047.02.094.027.149.012.047.02.093.027.14.012.047.02.106.032.153.007.046.015.093.027.14.008.047.02.102.035.149.012.047.02.093.04.14.007.047.026.106.038.153.008.047.028.093.035.14.012.047.02.082.04.13a4.246 4.246 0 0 0-.817-.208c-.234-.035-.469-.047-.695-.035.058-1.156.226-2.281.515-3.352.028-.02.059-.035.086-.054a.23.23 0 0 1 .067-.047Zm13.695-4.71c.938.48 1.848 1.05 2.71 1.719-.487.222-1.01.496-1.573.816a16.344 16.344 0 0 0-.735-.152.46.46 0 0 0-.047-.055 1.987 1.987 0 0 0-.109-.133c-.031-.027-.059-.066-.086-.094-.039-.046-.086-.093-.12-.14-.028-.027-.06-.055-.075-.082-.047-.047-.086-.094-.133-.14-.027-.032-.047-.048-.074-.079-.047-.047-.094-.101-.14-.148l-.067-.067c-.012-.008-.02-.02-.028-.027.047-.348.13-.668.254-.957.047-.18.13-.328.223-.461ZM27.48 30.176c-.14-.04-.28-.086-.421-.133-.047-.016-.094-.027-.149-.047-.125-.035-.246-.082-.367-.121-.066-.02-.133-.047-.188-.066-.105-.036-.214-.082-.32-.122l-.223-.082c-.093-.039-.187-.085-.28-.125l-.247-.101c-.094-.04-.18-.086-.262-.121a2.42 2.42 0 0 1-.246-.125c-.082-.047-.168-.082-.25-.13a.073.073 0 0 0-.039-.019 27.358 27.358 0 0 0 2.938-.601c0 .012.008.012.008.02.039.058.074.12.12.179.02.027.04.066.067.094.04.066.086.12.121.187l.059.082c.047.067.094.133.129.188.02.031.039.047.047.078.046.062.093.129.14.195.02.02.031.047.047.067l.14.195c.02.02.032.039.048.066.046.067.105.133.152.2.02.015.027.035.047.054.047.067.101.133.148.196.02.02.031.039.047.058.012.02.031.028.04.047l-.29.168c-.312-.074-.629-.148-.93-.234a.189.189 0 0 0-.086-.047Zm-2.765-12.113c.074-.036.156-.075.234-.11.094-.047.176-.094.27-.14.078-.04.152-.067.226-.106.102-.047.196-.094.301-.133.067-.027.14-.054.207-.082a5 5 0 0 1 .336-.133c.059-.02.113-.047.18-.066.12-.047.254-.094.375-.14.047-.016.082-.028.129-.048.14-.046.293-.093.441-.14.02-.008.047-.008.066-.016.282-.086.563-.16.856-.234.082.047.176.094.262.14a22.667 22.667 0 0 0-3.239 5.73 4.693 4.693 0 0 0-.496-.233l-.027-.094c-.02-.055-.027-.113-.047-.168a1.193 1.193 0 0 1-.027-.113.943.943 0 0 1-.04-.168c-.007-.04-.019-.086-.027-.125-.011-.055-.027-.11-.039-.168-.008-.036-.02-.082-.027-.121a.867.867 0 0 0-.04-.16 1.516 1.516 0 0 0-.026-.13c-.008-.058-.02-.105-.028-.16-.008-.047-.02-.086-.027-.133-.012-.046-.02-.101-.028-.148-.011-.047-.02-.094-.03-.133a.865.865 0 0 1-.016-.148.581.581 0 0 1-.02-.14c-.012-.048-.012-.095-.02-.141-.007-.047-.007-.094-.019-.141-.008-.047-.008-.094-.02-.14-.007-.048-.007-.098-.015-.145-.012-.047-.012-.094-.012-.13-.008-.046-.008-.093-.02-.14 0-.047-.007-.086-.007-.133 0-.046-.008-.093-.008-.148 0-.047-.012-.086-.012-.133 0-.047-.008-.101-.008-.148 0-.04 0-.086-.011-.121 0-.051 0-.106-.008-.153v-.254c.074-.035.14-.074.215-.12l.246-.134Zm18.086.468v.153c0 .046 0 .086-.008.132 0 .055 0 .102-.012.157 0 .039-.008.078-.008.125 0 .054-.007.109-.007.168 0 .035-.012.066-.012.101-.008.067-.008.121-.02.188 0 .027-.007.058-.007.086-.008.066-.008.14-.02.207 0 .02-.008.047-.008.066-.011.074-.02.148-.027.223 0 .011 0 .027-.012.039a3.43 3.43 0 0 1-.035.254v.008a21.21 21.21 0 0 1-.32 1.605c-.207.129-.434.262-.649.395-.008-.02-.02-.04-.02-.06-.007-.026-.027-.054-.034-.081l-.086-.207c-.008-.027-.028-.059-.04-.086-.027-.067-.054-.14-.093-.207-.008-.027-.028-.067-.035-.094a2.223 2.223 0 0 0-.094-.195c-.02-.028-.027-.067-.047-.094a2.287 2.287 0 0 0-.094-.2c-.02-.034-.039-.062-.047-.1-.027-.067-.066-.122-.093-.188-.02-.04-.04-.067-.059-.106-.016-.035-.035-.062-.047-.101a26 26 0 0 0 1.934-2.344v.157Zm-18.5 9.957v-.152c0-.047 0-.082.008-.129 0-.059 0-.105.011-.16 0-.04.008-.074.008-.121 0-.059.012-.113.012-.172 0-.035.008-.074.008-.102.007-.054.007-.12.02-.18 0-.027.007-.054.007-.081.012-.067.012-.133.02-.2 0-.02.007-.046.007-.066.012-.074.02-.148.032-.223 0-.011 0-.027.007-.039.008-.082.02-.168.04-.254v-.007c.081-.528.187-1.059.316-1.606.207-.129.422-.262.648-.394.008.02.008.03.02.046.02.047.047.106.066.153.016.047.035.094.055.14.02.055.047.102.066.16.02.047.035.094.055.141.027.055.047.113.074.16.02.047.04.082.059.13.027.058.055.113.082.167.02.04.039.086.058.125.028.055.055.121.082.176.02.04.04.074.06.113.026.067.066.121.093.188 0 .012.008.012.008.02a26.587 26.587 0 0 0-1.93 2.343v-.047c.008-.035.008-.082.008-.129Zm.73-5.547a.389.389 0 0 0-.035-.101l-.058-.18a.744.744 0 0 0-.036-.113c0-.008 0-.016-.011-.016.132.055.261.13.406.196-.067.168-.125.34-.18.507-.012-.039-.02-.066-.039-.105 0-.063-.027-.121-.047-.188Zm16.559-.214c.039.093.078.187.105.28 0 0 0 .009.008.009.04.097.067.191.106.285v.008c.027.066.046.14.074.207-.074.234-.16.457-.246.695a8.462 8.462 0 0 1-1.239-.91c.395-.219.79-.434 1.164-.649.012.02.02.047.028.075 0-.008 0-.008 0 0Zm-12.758 7.308a2.494 2.494 0 0 1-.133-.168.282.282 0 0 0-.054-.074c-.047-.059-.086-.113-.133-.172a.979.979 0 0 0-.055-.082 3.583 3.583 0 0 1-.133-.18c-.02-.027-.035-.054-.054-.086-.047-.054-.086-.12-.133-.175-.02-.028-.035-.059-.055-.086-.047-.055-.086-.121-.133-.176-.02-.031-.035-.059-.054-.086a2.887 2.887 0 0 1-.122-.18l-.058-.082c-.035-.047-.067-.105-.102-.152a45.25 45.25 0 0 0 1.883-.535c.227.574.406 1.164.52 1.738-.36.223-.715.441-1.063.645-.02-.016-.035-.047-.055-.063a.46.46 0 0 0-.066-.086Zm-2.543-3.996c-.027-.059-.055-.121-.086-.18a.622.622 0 0 0-.055-.101c-.027-.067-.054-.121-.085-.188-.016-.039-.036-.066-.047-.105-.028-.063-.055-.121-.082-.188-.02-.035-.028-.062-.047-.101-.028-.067-.059-.133-.086-.2-.02-.027-.028-.062-.047-.093-.027-.063-.055-.121-.074-.188-.02-.035-.028-.062-.047-.101-.008-.028-.02-.047-.028-.074.395-.227.797-.454 1.22-.676.308.289.609.61.89.957-.477.469-.93.937-1.352 1.387 0-.008-.008-.02-.008-.028-.02-.047-.046-.086-.066-.12Zm-.844-1.934c-.008-.039-.027-.066-.039-.101-.027-.067-.047-.133-.074-.188-.008-.039-.027-.066-.035-.105-.02-.066-.047-.121-.067-.188 0-.007 0-.007-.011-.02.078-.233.16-.456.246-.69.43.253.844.562 1.238.91-.394.215-.789.43-1.164.644-.008-.027-.02-.055-.027-.074-.02-.055-.047-.121-.067-.188Zm1.914 3.829c-.039-.067-.074-.122-.113-.188-.055-.094-.113-.187-.168-.281-.058-.094-.113-.188-.168-.281-.031-.047-.047-.086-.078-.133l-.082-.149a1.985 1.985 0 0 0-.086-.16c-.02-.039-.047-.086-.066-.12a2.017 2.017 0 0 0-.082-.161c-.02-.04-.047-.086-.067-.121v-.012c.43-.469.89-.937 1.371-1.414a11.25 11.25 0 0 1 1.63 2.766 45.02 45.02 0 0 1-1.91.543c-.04-.055-.08-.121-.114-.176-.028-.047-.047-.074-.067-.113ZM39.5 16.809a.528.528 0 0 1 .129.035l.387.113c.066.02.12.04.187.055.113.039.215.078.328.113.074.027.16.059.235.074.093.04.187.078.28.113.087.04.169.067.255.106.082.035.168.074.254.11.093.038.175.077.27.113.085.039.16.078.245.113l.27.133c.078.035.16.082.234.12l.059.028c-.871.121-1.867.328-2.938.602 0-.012-.008-.02-.008-.02-.027-.047-.066-.094-.093-.14-.028-.047-.059-.086-.086-.133-.035-.047-.067-.102-.102-.149-.027-.039-.058-.086-.086-.12-.039-.048-.066-.106-.101-.153-.032-.035-.059-.074-.086-.11-.04-.046-.067-.093-.102-.152a1.232 1.232 0 0 1-.086-.113c-.039-.047-.066-.094-.101-.14a.738.738 0 0 1-.086-.122c-.04-.047-.067-.094-.102-.133a1.428 1.428 0 0 1-.093-.12l-.106-.13c-.027-.039-.066-.086-.094-.125-.008-.007-.02-.027-.027-.035.102-.058.195-.113.289-.168.133.028.266.055.387.094.02 0 .035.008.047.008.14.047.289.094.441.133Zm.703 3.027c.035.066.074.133.113.187a.736.736 0 0 0 .055.094c.047.078.086.16.133.235.008.02.02.039.027.058.04.074.086.149.121.235a.4.4 0 0 1 .028.054v.012c-.43.469-.88.937-1.367 1.414a11.144 11.144 0 0 1-1.633-2.766 41.56 41.56 0 0 1 1.914-.543s0 .008.008.008c.039.055.074.113.105.168.027.047.063.106.094.153a.774.774 0 0 1 .074.12l.168.282c.047.101.102.195.16.289Zm-12.281 4.953a57.072 57.072 0 0 1 3.379-3.047 19.78 19.78 0 0 0 2.512 4.399 64.575 64.575 0 0 1-4.22 1.484 11.438 11.438 0 0 0-1.671-2.836Zm3.02-2.945a58.738 58.738 0 0 0-3.114 2.824 10.182 10.182 0 0 0-.863-.918 62.899 62.899 0 0 1 3.976-1.906Zm7.206-5.301c-.02-.016-.039-.047-.058-.066.105.02.207.039.3.066a2.792 2.792 0 0 0-.167.105c-.028-.046-.055-.074-.075-.105Zm-.34-.113c.032.03.047.058.079.086.047.047.082.105.129.152.02.016.039.035.047.062-.329.188-.657.395-.993.602a6.495 6.495 0 0 1-.113-1.05c.281.038.563.085.844.14 0 0 .008 0 .008.008Zm.348.414c.02.02.04.047.059.066a.654.654 0 0 1 .074.094c.04.055.086.101.121.16.02.027.047.055.067.094.039.055.086.101.12.16.02.027.048.055.067.082.04.059.086.113.121.172.02.027.047.055.067.094.039.054.086.109.12.168.02.027.048.054.067.093.04.055.086.114.121.168.02.028.04.055.059.086.035.063.082.121.12.188a.85.85 0 0 1 .056.082c.039.047.066.105.105.152-.61.16-1.238.336-1.887.535a10.109 10.109 0 0 1-.515-1.738c.355-.234.71-.45 1.058-.656Zm-.691 2.43c-1.371.421-2.817.93-4.25 1.492-.094-.114-.18-.235-.274-.348a52.252 52.252 0 0 1 4.016-2.844 9.58 9.58 0 0 0 .508 1.7Zm-4.383 1.538c-.434.168-.863.348-1.293.528.344-.281.691-.567 1.05-.836.075.101.157.207.243.308Zm1.473 1.954a21.25 21.25 0 0 0-1.258-1.88 61.27 61.27 0 0 1 4.215-1.472c.41 1.016.992 1.988 1.668 2.836a57.68 57.68 0 0 1-3.367 3.04 18.98 18.98 0 0 0-1.258-2.524Zm-1.813-2.375c-.469.367-.937.742-1.394 1.125a16.525 16.525 0 0 1-.977-3.48c.844.675 1.64 1.472 2.371 2.355Zm-1.34 1.265a53.89 53.89 0 0 1 1.766-.722 19.78 19.78 0 0 1 2.539 4.437c-.578.254-1.172.488-1.762.723a19.498 19.498 0 0 1-2.543-4.438Zm-.168-.082a58.374 58.374 0 0 0-4.37 2.082 7.498 7.498 0 0 0-1.333-.976 22.488 22.488 0 0 1 3.235-5.742c.496.28.984.609 1.453.968.172 1.219.527 2.457 1.015 3.668Zm-1.586 6.18a60.66 60.66 0 0 0 4.258-1.492c.086.113.18.226.274.347a49.867 49.867 0 0 1-4.024 2.844 9.298 9.298 0 0 0-.508-1.7Zm4.383-1.547c.43-.168.86-.348 1.293-.523-.347.28-.695.562-1.05.832-.087-.102-.16-.203-.243-.309Zm5.242-3.863c.274.328.563.636.864.918a57.051 57.051 0 0 1-3.977 1.902 49.06 49.06 0 0 0 3.113-2.82Zm.122-.114c.48-.468.93-.937 1.351-1.39l.059.113c.008.012.008.02.015.027.047.094.094.18.133.274 0 .008.008.008.008.02.047.081.086.175.133.269 0 .012.008.02.008.02.039.093.086.18.125.273 0 .008.007.008.007.02.04.093.086.187.121.28v.009c.04.093.086.187.122.28v.012l.03.083a41.98 41.98 0 0 1-1.222.675c-.308-.3-.61-.617-.89-.965Zm1.37-1.738a2.407 2.407 0 0 0-.093-.176c-.027-.046-.047-.086-.074-.132-.028-.055-.059-.102-.086-.16-.028-.055-.067-.11-.094-.169-.02-.035-.047-.082-.066-.12-.055-.094-.114-.188-.168-.294-.055-.101-.114-.187-.168-.28-.02-.036-.047-.075-.067-.11-.039-.059-.066-.113-.101-.172-.032-.047-.059-.082-.086-.129 1.09-.273 2.093-.48 2.972-.594a23.756 23.756 0 0 1-1.93 2.383c-.011 0-.03-.016-.038-.047Zm-3.96-4.23c.011.375.047.77.125 1.164a49.214 49.214 0 0 0-4.082 2.89 16.27 16.27 0 0 0-2.504-2.476 11.772 11.772 0 0 1-.125-1.512c2.16-.336 4.43-.367 6.586-.066Zm-7.512 14.336c-.02-.028-.04-.047-.066-.075a1.958 1.958 0 0 0-.141-.16.16.16 0 0 1-.047-.066c.328-.188.656-.395.992-.598.067.356.106.703.114 1.051-.282-.04-.563-.086-.844-.145 0-.007 0-.007-.008-.007Zm-2.984-4.137c.027.047.046.094.074.14.02.028.027.067.047.094.039.067.074.14.113.207.02.028.027.055.047.082.047.086.086.16.133.235.007.02.015.039.027.047.055.093.113.191.168.293l.168.28c.027.048.066.102.094.15.027.046.058.085.086.132.027.047.054.086.082.133-1.086.27-2.09.476-2.973.59.508-.742 1.164-1.54 1.934-2.383Zm2.578 3.93c.011.011.02.02.031.027.016.02.027.039.047.059.015.027.047.046.062.074a3.307 3.307 0 0 1-.297-.067c.036-.027.102-.066.157-.093Zm1.183-14.043c.008.449.047.898.114 1.359a14.381 14.381 0 0 0-1.332-.89c.074-.094.148-.196.234-.29.328-.058.656-.125.984-.18Zm-4.898 7.562c.02.047.039.102.058.149.02.046.036.093.055.14.02.047.04.106.059.153.015.035.027.074.047.109a41.65 41.65 0 0 0-.547.328c.086-.328.18-.664.293-.992.008.035.015.074.035.113Zm5.125 6.856a7.064 7.064 0 0 0-.125-1.16 53.857 53.857 0 0 0 4.082-2.891c.77.937 1.605 1.773 2.496 2.476.074.508.113 1.012.121 1.512-2.137.328-4.41.356-6.574.063Zm4.07-4.137c.469-.367.938-.742 1.399-1.125a16.61 16.61 0 0 1 .976 3.48 15.91 15.91 0 0 1-2.375-2.355Zm1.512-1.18a60.737 60.737 0 0 0 4.371-2.074c.422.383.871.71 1.332.977a22.427 22.427 0 0 1-3.238 5.738 12.19 12.19 0 0 1-1.453-.973 16.2 16.2 0 0 0-1.012-3.668ZM28.69 16.73a1.257 1.257 0 0 0-.14-.074c.086-.02.168-.035.242-.054-.035.046-.074.082-.102.128Zm8.293-1.207c.028.028.055.063.086.094.035.047.082.082.121.13.028.026.055.058.086.093.035.047.082.086.121.133a.59.59 0 0 1 .082.093c.04.047.086.094.125.141l.008.008c-.215-.035-.441-.074-.656-.102-.012-.215 0-.414.027-.59ZM30.117 31.5c-.027-.031-.047-.047-.074-.078l-.14-.14-.075-.075a2.499 2.499 0 0 1-.14-.148c-.02-.028-.047-.047-.067-.075-.047-.047-.094-.105-.14-.152.214.04.44.074.656.105.02.196.008.383-.02.563.008.008.008.008 0 0Zm11.832-8.34c-.031-.066-.047-.144-.078-.207a.235.235 0 0 0-.035-.086l-.086-.207c-.008-.027-.027-.055-.035-.082 0-.012 0-.012-.012-.02.188-.113.367-.214.543-.328-.082.329-.176.665-.289.993.008-.016 0-.035-.008-.063Zm.028.637c.007.027.02.047.027.074 0 .008 0 .008.008.02a6.258 6.258 0 0 1 .093.289c.032.086.06.18.086.265 0 .008.008.016.008.028 0 .007.012.02.012.027a4.709 4.709 0 0 1-.402-.195c.054-.18.109-.34.168-.508Zm-4.946 6.875a13.51 13.51 0 0 0-.101-1.36c.43.329.879.63 1.332.891-.078.094-.153.2-.235.293-.328.063-.668.121-.996.176Zm5.395-12.953c-.086-.04-.168-.086-.254-.125-.082-.035-.176-.082-.262-.121-.074-.04-.16-.067-.234-.102a4.903 4.903 0 0 0-.508-.2 4.172 4.172 0 0 0-.348-.128 3.38 3.38 0 0 0-.156-.059l-.414-.14-.086-.028a18.16 18.16 0 0 0-1.312-.355 19.768 19.768 0 0 1 1.492-.75 15.65 15.65 0 0 1 2.148 2.055c-.02-.032-.047-.04-.066-.047ZM30.07 16.168c-.273.047-.535.094-.808.14.273-.316.547-.617.828-.917-.012.254-.02.515-.02.777Zm-5.508 8.969c-.007.058-.027.113-.035.172-.011.035-.02.082-.03.12-.009.048-.017.102-.036.15-.012.046-.02.105-.027.151-.012.036-.02.082-.032.122-.007.054-.027.12-.035.175-.012.04-.012.067-.02.106-.007.066-.027.129-.038.195 0 .031-.008.059-.008.086a1.38 1.38 0 0 1-.04.215c0 .02-.007.047-.007.066-.008.075-.02.149-.027.227 0 .015-.012.035-.012.055-.008.074-.016.16-.027.234 0 .02 0 .039-.008.055-.012.078-.02.16-.02.238 0 .016 0 .035-.008.062-.011.079-.011.153-.02.227 0 .02 0 .047-.01.066-.009.075-.009.141-.009.215v.086c0 .063-.011.13-.011.195v.047a16.445 16.445 0 0 1-.692-2.504c.356-.234.73-.496 1.152-.761Zm17.977-3.254c.008-.047.02-.094.035-.153.012-.046.02-.093.04-.14.011-.047.019-.082.027-.13.011-.058.03-.112.039-.179.008-.035.008-.066.02-.101.007-.067.027-.133.034-.207.012-.028.012-.055.012-.075.008-.078.027-.152.035-.226 0-.02.012-.04.012-.055.008-.078.027-.16.035-.234 0-.02 0-.031.012-.047.008-.086.027-.172.035-.254 0-.012 0-.027.012-.039.008-.082.02-.168.027-.254v-.035c.008-.086.02-.172.027-.254v-.04a1.74 1.74 0 0 0 .02-.253v-.047c.008-.082.008-.156.02-.242v-.055c0-.078.007-.152.007-.226v-.04c.301.829.535 1.66.696 2.508-.34.25-.723.516-1.145.778Zm-17.918 7.39c.016.012.035.02.055.032.066.035.14.062.207.101.101.047.195.094.3.14.067.028.13.06.188.087l.336.14c.059.02.113.047.16.067.133.047.262.101.395.148.039.02.086.028.12.047.153.055.302.102.462.149.02.011.047.02.066.02.176.058.344.112.524.16h.011c.262.073.532.148.805.214-.535.293-1.031.547-1.492.75a17.32 17.32 0 0 1-2.137-2.055Zm13.8 1.016c.048.027.095.055.142.074-.086.02-.172.04-.254.055a2.04 2.04 0 0 0 .113-.129Zm-11.523 1.145a21.692 21.692 0 0 0 1.567-.809c.246.059.488.105.734.152a.981.981 0 0 1 .102.121c.02.02.027.04.047.055.054.059.101.125.16.18.02.02.027.039.047.055.054.058.101.113.16.171.02.016.035.036.047.055.054.055.101.113.16.168a.75.75 0 0 0 .055.059c.039.035.074.074.113.113a3.794 3.794 0 0 1-.254.953c-.066.16-.148.313-.242.453a18.196 18.196 0 0 1-2.696-1.726Zm10.133-.575c.274-.047.535-.093.797-.14-.262.32-.543.62-.824.91.027-.254.035-.504.027-.77Zm.34-17.047a3.22 3.22 0 0 0-.285.583 3.85 3.85 0 0 0-.203.75.754.754 0 0 1-.059-.055l-.16-.16a.206.206 0 0 0-.055-.047c-.054-.055-.113-.102-.168-.16-.02-.016-.027-.028-.046-.047-.06-.055-.114-.11-.18-.156-.008-.012-.028-.032-.035-.04a5.97 5.97 0 0 0-.18-.16c-.012-.008-.027-.02-.04-.027-.065-.059-.12-.113-.187-.16a.133.133 0 0 0-.035-.028c-.066-.058-.133-.105-.199-.16l-.027-.027c-.067-.059-.133-.105-.196-.16-.011-.008-.02-.02-.03-.028-.063-.046-.13-.105-.196-.152-.008-.008-.02-.015-.028-.027a3.285 3.285 0 0 1-.199-.149c-.008-.011-.027-.02-.035-.027-.066-.047-.133-.094-.2-.145-.007-.007-.026-.015-.034-.027-.067-.047-.125-.082-.188-.129-.02-.011-.039-.02-.047-.039-.058-.039-.125-.074-.18-.113-.019-.008-.038-.027-.066-.035-.054-.04-.113-.067-.168-.106-.027-.02-.058-.027-.074-.047-.047-.027-.105-.054-.152-.082l-.102-.058c.035-.02.074-.035.113-.067.008 0 .008-.007.016-.007 1.23.28 2.45.71 3.625 1.293Zm5.918 11.016a4.12 4.12 0 0 1-.871-.242c-.02-.059-.031-.113-.047-.16-.012-.028-.02-.067-.031-.094a3.777 3.777 0 0 0-.055-.2c-.008-.027-.02-.054-.027-.093-.02-.066-.047-.129-.067-.207-.007-.027-.02-.055-.027-.082-.02-.066-.047-.14-.066-.207 0-.008-.008-.02-.008-.04.11-.327.203-.655.297-.983v-.02c.02-.082.047-.156.066-.242.012-.02.012-.04.02-.067.007-.035.02-.074.027-.113.453-.281.863-.55 1.23-.816.215 1.191.301 2.394.254 3.566-.226.04-.46.04-.695 0Zm.582-3.855c-.148-.77-.367-1.54-.629-2.301.45.601.844 1.23 1.184 1.867-.172.14-.36.293-.555.434Zm-.562-2.543c.007 0 .007.008.02.008.034.019.062.046.1.066.04.027.075.047.114.074l.094.067c.039.027.074.046.113.078.027.015.066.047.094.062.035.031.074.047.113.078a.381.381 0 0 1 .082.063c.04.031.074.058.113.086.028.02.055.039.086.066.035.027.075.055.102.082a.64.64 0 0 1 .074.067c.04.027.074.058.106.085.027.02.046.036.074.055.035.028.066.059.101.094.02.02.047.039.067.059.039.027.066.062.105.093a.477.477 0 0 0 .063.055c.039.027.066.066.093.094.012.011.032.027.04.039.019.047.039.082.054.129-.148.152-.316.32-.515.48a16.066 16.066 0 0 0-1.293-1.98ZM23.23 26.047c.153.77.368 1.539.63 2.3a15.24 15.24 0 0 1-1.184-1.867c.18-.14.36-.28.554-.433Zm.563 2.543c-.047-.027-.082-.055-.121-.074-.027-.02-.067-.04-.094-.055-.039-.031-.074-.05-.113-.078-.027-.02-.055-.035-.082-.055-.04-.027-.078-.058-.125-.086-.028-.02-.055-.035-.074-.055-.036-.027-.082-.058-.122-.085-.027-.02-.046-.036-.074-.055-.039-.027-.086-.067-.125-.094a.127.127 0 0 0-.062-.047.996.996 0 0 1-.125-.105c-.016-.016-.035-.028-.055-.047-.039-.035-.086-.063-.121-.102-.02-.007-.027-.027-.047-.039-.039-.035-.086-.074-.121-.11-.012-.01-.031-.03-.039-.038-.04-.04-.086-.074-.121-.113a.123.123 0 0 1-.04-.04l-.073-.074c-.02-.047-.04-.082-.055-.129.148-.152.316-.32.516-.48.363.668.785 1.324 1.273 1.96Zm18.746-11.098a17.12 17.12 0 0 0-1.988-1.894 21.1 21.1 0 0 1 .758-.313c.46.695.875 1.43 1.23 2.207Zm-2.129-2a17.079 17.079 0 0 0-2.797-1.781c.18-.234.395-.422.637-.574.266-.157.563-.262.875-.297.77.656 1.46 1.441 2.082 2.316a57.36 57.36 0 0 0-.797.336Zm-6.992-3c-.016-.012-.047-.027-.063-.039.028.012.063.012.094.02-.011.007-.02.007-.031.02ZM21.242 21c.02-.027.04-.066.067-.094.007-.02.027-.035.035-.054.031-.047.066-.094.105-.141.008-.012.02-.02.028-.04.027-.046.066-.085.093-.132.008-.016.028-.027.04-.047.027-.035.054-.074.093-.11.016-.019.027-.038.047-.058.008-.008.016-.027.035-.035.02-.02.027-.039.047-.047a.461.461 0 0 1 .066-.078.153.153 0 0 0 .047-.055l.012-.007c.027-.04.063-.067.094-.106.015-.02.035-.035.054-.055.04-.039.075-.074.102-.105.02-.016.04-.035.059-.047l.113-.113c.016-.016.035-.028.055-.047.039-.035.086-.074.12-.11.02-.019.04-.03.048-.046.046-.04.085-.078.132-.114a.19.19 0 0 0 .047-.039c.047-.035.094-.074.14-.113.02-.008.036-.027.048-.035a2.45 2.45 0 0 1 .148-.113.12.12 0 0 0 .047-.04c.047-.035.106-.074.152-.109.02-.012.036-.031.055-.039.012-.008.02-.008.027-.02a16.492 16.492 0 0 0-.457 3.2 2.415 2.415 0 0 0-.91.32c-.234.14-.433.309-.61.516A9.08 9.08 0 0 1 21.243 21Zm.938 1.484c.226-.14.48-.226.75-.28a16.947 16.947 0 0 0 .28 3.667c-.214.156-.41.309-.597.457a12.55 12.55 0 0 1-1.144-3.18c.187-.273.43-.496.71-.664Zm2.383 7.036a16.353 16.353 0 0 0 2 1.894c-.262.113-.516.215-.762.309a13.829 13.829 0 0 1-1.238-2.203Zm1.332 2.335a12.8 12.8 0 0 0 .796-.328 16.938 16.938 0 0 0 2.797 1.782c-.18.234-.394.421-.636.574-.262.16-.563.262-.875.3a12.854 12.854 0 0 1-2.082-2.328Zm7.796 2.672c.02.012.047.02.067.04-.028-.008-.067-.008-.094-.02 0-.008.008-.008.027-.02Zm8.696-19.277.031.102c.008.02.008.046.016.078.02.047.03.101.046.148.012.02.012.047.02.067.012.054.027.101.04.16.007.015.007.047.019.062.007.059.027.113.035.172 0 .016.011.047.011.063.008.058.02.113.036.171 0 .016.011.047.011.063.008.059.02.125.028.18 0 .02.008.039.008.066l.03.188c0 .02.009.039.009.066.007.066.02.121.02.187 0 .02 0 .047.007.067.012.062.012.129.02.187 0 .028 0 .047.007.075 0 .066.012.12.012.187a14.63 14.63 0 0 0-1.277-2.309c.132-.046.261-.085.386-.12.11-.028.215-.06.317-.087.047.075.105.153.168.227Zm-11.575-2.27a4.85 4.85 0 0 1 .422-.761c.489.02.977.058 1.473.133a.91.91 0 0 1 .133.066c.027.016.055.027.082.047.058.027.113.055.168.082.039.02.066.039.105.058.008 0 .02.008.02.008s-.012 0-.012.008a.751.751 0 0 0-.101.066 1.964 1.964 0 0 0-.133.086 1.29 1.29 0 0 0-.102.067c-.047.027-.086.055-.133.082-.039.027-.074.047-.113.074-.035.031-.082.059-.121.086-.04.027-.086.055-.121.086-.04.027-.074.047-.106.074-.046.028-.082.067-.128.094l-.094.066c-.047.036-.094.075-.153.114-.027.015-.046.035-.074.054-.054.047-.113.086-.16.133-.02.008-.035.027-.055.047-.058.047-.12.094-.18.148l-.027.028a2.98 2.98 0 0 1-.207.168c-.308.273-.617.554-.918.847a7.385 7.385 0 0 1 .535-1.96Zm-6.09 18.79c-.007-.036-.019-.067-.027-.102a.587.587 0 0 1-.027-.105c-.012-.036-.031-.083-.04-.122l-.026-.093c-.012-.047-.02-.094-.04-.13-.007-.03-.007-.058-.019-.085-.008-.047-.016-.094-.027-.149-.008-.03-.008-.058-.02-.086a2.755 2.755 0 0 0-.027-.16c0-.027-.008-.047-.008-.074a2.99 2.99 0 0 1-.027-.168c0-.031-.012-.047-.012-.078-.008-.055-.02-.121-.027-.176 0-.02-.008-.047-.008-.066a.921.921 0 0 1-.02-.188c0-.02 0-.047-.012-.074-.007-.066-.007-.121-.015-.187 0-.028 0-.047-.012-.075 0-.058-.008-.125-.008-.18a14.34 14.34 0 0 0 1.274 2.31c-.13.046-.262.081-.383.12a3.795 3.795 0 0 0-.309.086 1.623 1.623 0 0 1-.18-.218Zm4.157 2.3c.289-.168.535-.406.742-.687 1.117.554 2.277.976 3.461 1.258-.008.011-.027.011-.039.02a1.598 1.598 0 0 1-.11.054l-.113.058c-.039.02-.078.036-.113.055-.039.02-.074.027-.105.047-.036.02-.075.04-.122.059-.035.015-.066.027-.101.046a.853.853 0 0 1-.121.047c-.04.008-.067.028-.106.035-.035.02-.082.032-.12.047-.028.012-.067.032-.094.04-.04.019-.086.027-.122.046l-.093.028c-.04.011-.086.027-.125.039-.028.008-.063.02-.094.027-.035.008-.082.027-.121.04l-.094.026a.79.79 0 0 0-.129.036.246.246 0 0 1-.086.02c-.047.01-.086.019-.133.026-.027.012-.054.012-.082.02-.047.012-.086.02-.132.027-.028.012-.055.012-.082.02a.546.546 0 0 1-.133.02c-.028 0-.059.007-.086.007-.047.012-.082.012-.13.02-.03 0-.058.011-.077.011-.047.008-.082.008-.13.016-.026 0-.046 0-.073.012h-.02a11.29 11.29 0 0 1-1.84-1.219c.262-.086.508-.172.723-.3Zm7.41-.027c-.121.27-.262.523-.422.758a12.65 12.65 0 0 1-1.472-.133c-.008-.008-.028-.008-.036-.016-.058-.03-.105-.047-.16-.078-.027-.008-.058-.027-.086-.035a1.22 1.22 0 0 1-.14-.074.35.35 0 0 0-.094-.047c.039-.031.086-.047.121-.078.04-.016.066-.047.105-.063.047-.03.094-.058.13-.086.038-.02.066-.046.105-.066.047-.027.094-.066.14-.094.028-.02.067-.035.094-.066.047-.035.094-.063.149-.102.027-.02.058-.039.086-.058.054-.035.101-.075.16-.11a.23.23 0 0 1 .066-.047c.055-.039.11-.086.168-.132.02-.008.035-.028.055-.04.066-.046.12-.093.187-.14a.091.091 0 0 0 .028-.027c.066-.055.132-.114.199-.16l.008-.008c.386-.32.77-.668 1.136-1.032-.093.703-.261 1.36-.527 1.934Zm6.758-4.43c0-.047 0-.093.008-.14 0-.047 0-.086.008-.133v-.535a.736.736 0 0 0 .093-.055c.04-.027.086-.047.125-.074.028-.02.063-.04.094-.059-.105.348-.219.688-.34 1.016.012-.012.012-.012.012-.02Zm1.8-10.3c-.038-.028-.074-.067-.105-.094-.02-.02-.035-.04-.054-.047-.04-.04-.086-.067-.122-.106a.783.783 0 0 1-.066-.054c-.04-.028-.086-.067-.121-.094-.02-.02-.047-.04-.066-.055l-.122-.093c-.03-.02-.046-.04-.078-.06-.035-.026-.082-.054-.12-.085a.997.997 0 0 1-.083-.055c-.039-.027-.086-.054-.125-.086-.027-.015-.055-.035-.094-.054a.774.774 0 0 0-.12-.075c-.04-.02-.067-.046-.102-.066-.04-.027-.078-.047-.125-.074-.035-.02-.074-.047-.11-.067a.12.12 0 0 0-.039-.02c.395-.034.742-.054 1.051-.054.207.403.402.817.602 1.238Zm-1.785-1.333c.235-.355.422-.668.575-.949.18.293.347.582.508.875-.36.008-.735.035-1.083.074Zm-.074-.18v-.034c0-.047 0-.094-.008-.153 0-.039 0-.086-.011-.12 0-.048-.008-.095-.008-.141 0-.04-.008-.086-.008-.122 0-.046-.012-.093-.012-.14 0-.04-.007-.086-.007-.125-.012-.047-.012-.094-.02-.14-.008-.036-.008-.083-.02-.122-.007-.047-.007-.082-.019-.129-.008-.039-.008-.086-.016-.125a.491.491 0 0 1-.02-.129c-.01-.039-.01-.086-.019-.125-.008-.035-.02-.082-.027-.12-.012-.036-.02-.083-.027-.122-.012-.039-.02-.074-.032-.121-.007-.039-.015-.086-.027-.121 0-.012 0-.02-.008-.031.281.386.551.78.805 1.183-.102.282-.281.582-.516.938ZM24.047 29.04c-.235.358-.422.667-.57.948a20.18 20.18 0 0 1-.508-.87c.32-.013.676-.032 1.078-.079Zm.066.187v.039c0 .047 0 .093.008.14a.5.5 0 0 0 .012.133c0 .047.008.094.008.14 0 .048.011.083.011.13 0 .046.008.093.008.132 0 .047.008.086.008.133 0 .047.012.082.02.13.011.046.011.085.019.132.008.035.008.082.02.121.007.047.007.086.02.133.007.035.007.082.015.12.011.048.011.087.02.134a.38.38 0 0 1 .019.11c.008.046.02.085.027.132.012.039.02.074.027.113.012.035.02.082.032.121 0 .008 0 .02.008.028a20.3 20.3 0 0 1-.81-1.18c.126-.281.302-.594.528-.941Zm14.926 1.21a17.432 17.432 0 0 0 2.336-.785c.008-.011.027-.011.04-.02.128-.058.253-.112.382-.171.058-.027.113-.047.168-.074l.281-.14c.086-.036.16-.083.246-.122.082-.04.16-.086.235-.133.046-.027.086-.047.132-.074v.395c0 .046 0 .093-.011.14 0 .04 0 .086-.008.121 0 .047-.012.094-.012.14 0 .04-.008.079-.008.114 0 .047-.008.094-.008.14 0 .04-.011.075-.011.114-.008.047-.008.094-.02.14 0 .02 0 .04-.008.048-.12.28-.253.554-.394.824-1.004.125-2.14-.102-3.34-.657Zm6.727-4.257c-.04.054-.086.113-.121.168a.165.165 0 0 1-.04.047c-.027.039-.066.085-.093.12-.02.02-.028.04-.047.06-.028.034-.055.073-.094.113a.297.297 0 0 0-.055.062c-.027.04-.066.066-.093.105l-.059.055a.518.518 0 0 1-.102.106.362.362 0 0 0-.054.054c-.04.04-.067.075-.106.102-.02.02-.035.039-.054.058-.04.036-.075.075-.114.102-.02.02-.039.027-.058.047-.035.039-.082.078-.121.113-.02.02-.035.028-.055.047l-.133.113c-.02.008-.035.028-.047.04-.047.035-.093.074-.14.109-.02.012-.035.031-.047.039a2.452 2.452 0 0 1-.196.148c-.046.04-.105.078-.152.114-.015.011-.035.027-.055.039-.007.007-.02.007-.027.02.262-1.024.41-2.102.457-3.2a2.415 2.415 0 0 0 1.52-.844c.113.637.18 1.266.18 1.895-.028.062-.055.11-.094.168ZM24.449 15.96c.012 0 .012 0 0 0v.02-.019Zm-.383 1.446c0 .04 0 .086-.011.133 0 .047 0 .094-.008.14v.525c-.04.019-.074.046-.113.066-.036.02-.075.046-.114.066a.736.736 0 0 1-.093.055c.105-.344.218-.684.34-1.012v.027Zm21.739 6.203a12.985 12.985 0 0 0-1.137-3.05c.14-.122.273-.235.395-.356a.885.885 0 0 1 .113-.101c.383.972.683 1.968.87 2.945a3.485 3.485 0 0 1-.241.562Zm-24.508-.187a12.768 12.768 0 0 0 1.137 3.047c-.141.125-.274.234-.395.36-.035.034-.074.073-.113.1a16.822 16.822 0 0 1-.871-2.945c.074-.207.148-.394.242-.562Zm.34 3.34c-.02-.02-.04-.04-.059-.067-.008-.008-.015-.02-.015-.027a1.855 1.855 0 0 1-.106-.133c-.008-.008-.008-.02-.02-.027-.035-.047-.062-.094-.101-.14-.008-.009-.008-.02-.02-.028-.027-.047-.066-.094-.093-.14-.008-.012-.008-.02-.02-.032a1.208 1.208 0 0 0-.082-.129c-.012-.012-.012-.02-.02-.027-.027-.047-.054-.094-.074-.133-.011-.008-.011-.027-.02-.04a1.01 1.01 0 0 1-.066-.128c-.007-.012-.007-.027-.02-.04a.65.65 0 0 0-.062-.128c0-.387.028-.754.094-1.082.156.762.39 1.531.684 2.3Zm21.015 4.304c0-.007.008-.007.008-.02-.008.013-.008.013-.008.02Zm-.562-16.183a1.081 1.081 0 0 0-.16.047 9.78 9.78 0 0 0-.516.168 13.147 13.147 0 0 0-1.988-2.27c.222 0 .469.02.71.067.696.582 1.34 1.257 1.954 1.988Zm-2.883-2.25a11.57 11.57 0 0 0-1.687-1.203h.347c.047 0 .094.011.14.011.02 0 .036 0 .048.008.02 0 .035 0 .054.012.582.328 1.157.723 1.707 1.16a3.522 3.522 0 0 0-.609.012Zm-2.559-1.344c-.02 0-.046.012-.066.012-.047.008-.094.02-.14.027-.028 0-.047.008-.075.008-.047.012-.094.02-.14.031-.032.008-.047.008-.079.016-.046.012-.093.02-.14.039-.028.008-.055.008-.082.02-.047.007-.094.027-.133.035-.027.011-.055.02-.086.03-.047.009-.082.028-.129.036a.535.535 0 0 1-.094.027c-.047.012-.086.032-.132.047-.028.012-.067.02-.094.031-.035.016-.082.028-.121.047-.04.008-.067.028-.102.035-.039.02-.078.028-.125.047-.035.02-.074.028-.113.047-.035.02-.074.028-.11.047-.039.02-.078.027-.113.047-.039.02-.074.039-.113.047-.04.02-.086.039-.121.058-.04.016-.067.036-.106.047l-.129.055c-.039.02-.066.04-.105.047-.047.02-.082.047-.129.066a.42.42 0 0 1-.094.047.164.164 0 0 0-.047.027 14.161 14.161 0 0 0-.988-.18s-.008 0-.008-.007c-.039-.02-.066-.027-.101-.047-.047-.02-.086-.039-.133-.055-.027-.011-.055-.03-.086-.039a1.142 1.142 0 0 1-.14-.066c-.028-.008-.047-.02-.075-.027a1.751 1.751 0 0 1-.16-.067c-.016-.008-.035-.02-.062-.02a1.014 1.014 0 0 1-.172-.062c-.016-.012-.035-.012-.055-.02-.04-.011-.074-.027-.113-.038.261-.282.543-.516.87-.704a4.04 4.04 0 0 1 1.552-.523 8.152 8.152 0 0 1 1.687.402c.34.114.668.254.996.403a.164.164 0 0 1-.094.027Zm-5.628.922a5.44 5.44 0 0 0-.34.637c-.301.656-.477 1.418-.563 2.25-.394.406-.77.828-1.137 1.27-.222.046-.449.1-.675.16-1.239-.622-2.418-.883-3.48-.81a11.09 11.09 0 0 1 2.187-2.878c1.258-.453 2.61-.649 4.008-.63Zm-10.192 9.531c.012-.027.02-.047.04-.074a.197.197 0 0 1 .038-.066c.008-.012.008-.02.016-.028.012-.02.02-.047.039-.066.008-.028.027-.047.039-.074.008-.012.008-.02.016-.032.011-.015.02-.035.03-.054.017.59.095 1.183.216 1.773-.094.14-.18.281-.246.442a10.355 10.355 0 0 1-.188-1.82Zm4.184 10.395c.058-.008.105-.028.16-.047.16-.047.34-.102.515-.168a13.003 13.003 0 0 0 1.993 2.27c-.227 0-.473-.02-.715-.067a15.97 15.97 0 0 1-1.953-1.988Zm13.363 3.332h-.031c-.028 0-.063.008-.094.008-.027 0-.066.007-.094.007-.035 0-.066.012-.101.012h-.676c-.047 0-.086-.012-.133-.012-.016 0-.047 0-.062-.007-.051 0-.098-.008-.145-.008-.016 0-.035-.012-.055-.012-.047-.008-.101-.008-.148-.02-.02 0-.04-.007-.059-.007-.054-.008-.101-.02-.16-.028-.015 0-.035-.011-.047-.011-.054-.008-.11-.016-.168-.028-.02 0-.027-.008-.047-.008-.054-.011-.113-.027-.167-.039-.008 0-.028-.007-.04-.007-.054-.02-.12-.028-.175-.047-.012 0-.02-.012-.04-.012-.046-.008-.085-.027-.132-.035l.14-.2c.133 0 .254.012.387.012 1.172 0 2.297-.16 3.348-.48a8.064 8.064 0 0 1-1.301.922Zm-2.29-.66c.122-.196.235-.41.337-.637.3-.656.476-1.418.562-2.25.395-.406.77-.828 1.137-1.266.234-.05.457-.105.684-.16 1.09.543 2.14.817 3.113.817.125 0 .246-.012.367-.02a11.217 11.217 0 0 1-2.195 2.89c-1.246.45-2.61.657-4.004.626ZM28.73 11.555c.102-.012.204-.02.31-.032.112-.007.222-.007.335-.007h.32c.055 0 .102.007.16.007.028 0 .067.012.094.012.047 0 .094.008.14.008.028 0 .067.012.102.012.047.008.094.008.141.015.04.012.066.012.105.02a1.4 1.4 0 0 0 .141.027c.027.012.067.012.094.02.047.011.094.02.148.027.028.012.067.02.094.02.047.011.106.027.152.039.028.007.055.02.094.027.055.008.102.027.156.047-.046.066-.101.133-.148.195-1.293-.035-2.55.113-3.734.473a8.59 8.59 0 0 1 1.296-.91Zm-6.878 15.77c.226.542.488 1.085.77 1.62-.524-.027-.892-.129-1.106-.297-.067-.171-.133-.332-.188-.5.035-.242.203-.523.496-.851.008 0 .02.015.028.027Zm9.503 8.827a11.3 11.3 0 0 1-.996-.402h.012c.047-.012.094-.012.14-.02a.414.414 0 0 1 .122-.02c.047-.007.094-.019.133-.026.035-.012.082-.02.12-.028.048-.011.094-.02.134-.031.046-.008.082-.016.128-.027a.834.834 0 0 0 .133-.035c.047-.012.082-.032.13-.04.046-.007.085-.027.132-.039a.487.487 0 0 0 .133-.047c.047-.007.082-.027.129-.035.047-.02.093-.027.133-.047.046-.02.085-.027.132-.046l.14-.059c.048-.016.083-.035.13-.047.047-.016.094-.035.14-.055.047-.02.086-.039.133-.054.047-.02.094-.047.14-.067.048-.02.087-.039.134-.058.047-.02.093-.047.14-.074.047-.02.082-.047.13-.067.046-.027.093-.047.14-.074.027-.02.058-.027.086-.047.328.074.656.133.984.18.008.008.028.008.04.015.062.032.12.059.187.086.015.012.027.012.047.02.074.027.14.066.214.094.208.086.403.16.61.226a3.516 3.516 0 0 1-.871.703 3.99 3.99 0 0 1-1.551.524 9.123 9.123 0 0 1-1.688-.403Zm12.63-5.582a3.965 3.965 0 0 1-1.118.45c0-.02.008-.028.008-.047.012-.028.012-.055.02-.082.011-.047.02-.106.027-.153.012-.027.012-.066.02-.093.011-.047.011-.094.019-.149.008-.039.008-.066.02-.105 0-.008 0-.028.007-.036.262-.609.48-1.25.668-1.906a.4.4 0 0 1 .094-.054c.035-.032.074-.047.113-.079.035-.027.075-.046.102-.074a2.29 2.29 0 0 0 .101-.074l.106-.074c.035-.028.066-.047.094-.074a.59.59 0 0 1 .101-.079c.028-.027.067-.046.094-.074.039-.027.066-.055.105-.082.028-.031.055-.047.082-.078.04-.027.067-.055.106-.082a.334.334 0 0 0 .074-.074c.04-.031.067-.059.102-.094.03-.02.047-.047.078-.066.035-.032.062-.067.101-.094l.067-.067c.035-.039.066-.066.101-.105a.305.305 0 0 0 .059-.063c.035-.039.062-.078.102-.105.019-.02.039-.035.054-.055a.799.799 0 0 0 .094-.113c.02-.02.031-.039.047-.055a.581.581 0 0 0 .094-.125c.011-.015.03-.035.039-.047.027-.035.066-.082.093-.12.012-.008.02-.028.028-.036a9.667 9.667 0 0 1-.14 1.301 8.151 8.151 0 0 1-.477 1.672c-.375.496-.79.898-1.286 1.191Zm1.292-10.836c-.007-.011-.02-.02-.027-.039a21.635 21.635 0 0 0-.762-1.613c.528.027.903.133 1.11.3.066.169.129.329.187.497-.047.234-.215.527-.508.855Zm-1.64-3.097a20.434 20.434 0 0 0-1.07-1.508c-.008-.04-.02-.066-.028-.106-.012-.02-.012-.035-.02-.054.403-.067.723-.047.95.035.14.152.27.3.402.473.047.242.008.617-.234 1.16ZM23.465 30.383c.34.535.703 1.039 1.078 1.52.012.027.02.054.031.085a.127.127 0 0 1 .016.055c-.402.066-.723.047-.945-.04a7.7 7.7 0 0 1-.403-.468c-.058-.234-.02-.598.223-1.152Zm20.922-12.469a23.025 23.025 0 0 0-.637-1.098c.215-.449.309-.796.336-1.07a11.7 11.7 0 0 1 1.379 2.336c-.29-.113-.664-.16-1.078-.168ZM22.715 29.117c.12.215.234.43.367.645.094.152.176.3.27.453-.215.441-.309.785-.329 1.058a11.889 11.889 0 0 1-1.378-2.335c.261.113.62.167 1.07.18Zm18.96 4.344a9.344 9.344 0 0 1-1.07.523 11.77 11.77 0 0 0 1.934-2.71c.02 0 .047-.008.066-.008v.015c-.011.04-.02.086-.03.125a1.337 1.337 0 0 1-.028.102.618.618 0 0 1-.035.12l-.032.106c-.007.036-.027.075-.035.121-.011.028-.02.067-.027.094-.012.04-.031.074-.04.121-.007.028-.019.059-.026.094-.02.047-.04.086-.047.133a.57.57 0 0 0-.028.074l-.086.195a9.05 9.05 0 0 1-.515.895Zm4.259-5.695a9.022 9.022 0 0 0 .152-1.692c.066-.101.129-.203.187-.308-.027.882-.168 1.68-.421 2.382.035-.128.054-.253.082-.382Zm-.016-7.274a2.29 2.29 0 0 1-.133-.176c-.027-.027-.047-.066-.074-.093-.02-.028-.04-.059-.066-.075a.852.852 0 0 0-.094-.105c-.02-.02-.04-.035-.059-.066-.035-.036-.062-.075-.101-.11v-.012c.214-.242.375-.46.48-.664a8.1 8.1 0 0 1 .356 1.774c-.086-.152-.2-.313-.309-.473Zm-3.465-5.691a.332.332 0 0 0-.035-.086c-.02-.04-.031-.074-.047-.113-.02-.036-.031-.075-.047-.102a1.244 1.244 0 0 1-.047-.105c-.03-.067-.066-.141-.093-.207a7.653 7.653 0 0 0-.274-.504c.45.3.89.664 1.293 1.078a2.312 2.312 0 0 0-.75.039Zm-4.812-3.586h-.207c-.047 0-.094 0-.149.012h-.066c-.02 0-.047 0-.067.007a9.71 9.71 0 0 0-1.34-.582 6.856 6.856 0 0 0-.628-.187c.18.02.347.047.515.074.04.012.074.012.102.02.601.132 1.21.347 1.84.656Zm-14.524 5.234A3.965 3.965 0 0 1 24.234 16v.008c-.007.039-.02.078-.02.125a.604.604 0 0 0-.015.12c-.012.036-.012.075-.02.122-.011.04-.011.086-.019.133-.008.035-.008.082-.02.12v.04c-.273.61-.495 1.246-.675 1.902a.997.997 0 0 1-.082.055s-.012 0-.012.012c-.035.027-.074.047-.113.074-.028.02-.063.047-.094.066 0 0-.008 0-.008.008-.039.031-.074.047-.101.078-.032.016-.067.047-.098.063 0 0-.008 0-.008.012-.039.027-.066.054-.101.074-.032.027-.067.047-.094.074l-.012.012c-.027.027-.066.054-.094.074-.027.027-.066.047-.093.074l-.008.008a.357.357 0 0 1-.094.078c-.027.027-.058.047-.094.074l-.011.008c-.028.027-.055.059-.082.074a.519.519 0 0 1-.086.078l-.008.008a.727.727 0 0 1-.086.074l-.082.086c-.031.02-.047.047-.067.067l-.011.008c-.028.027-.055.058-.074.074-.008.012-.02.02-.028.039a.48.48 0 0 0-.058.066c-.016.02-.047.047-.063.067-.039.035-.066.074-.094.11a.417.417 0 0 0-.058.065.715.715 0 0 0-.094.122c-.02.02-.027.039-.047.058-.027.035-.066.082-.094.121-.007.02-.027.04-.035.055-.011.012-.02.031-.031.039.02-.441.066-.871.14-1.305a8.527 8.527 0 0 1 .481-1.668 3.9 3.9 0 0 1 1.246-1.203Zm-2.23 9.625s.008 0 0 0c.093.16.187.313.3.453.047.055.083.114.13.176.019.02.027.04.046.059.028.035.059.074.094.113.02.016.04.047.059.063.027.039.054.066.082.105.02.027.047.047.066.074.008.02.027.028.04.047a3.25 3.25 0 0 0-.481.668 8.157 8.157 0 0 1-.356-1.773c.008 0 .02.007.02.015Zm3.168 6.211c.18 0 .379-.015.593-.055a.5.5 0 0 0 .036.086c.02.036.03.075.046.121.012.036.032.067.04.094.02.035.027.074.046.114.028.062.067.14.094.207.086.175.18.343.274.503a8.03 8.03 0 0 1-1.297-1.078c.058 0 .113.008.168.008Zm22.207-9.23a4.39 4.39 0 0 0 .199-1.059c.008.035.02.067.035.102.012.02.012.047.02.066.011.04.02.074.027.113.012.02.012.047.02.067.011.035.019.074.027.11.012.03.012.046.02.077a.377.377 0 0 1 .019.102.306.306 0 0 1 .008.086c.011.035.011.062.02.101 0 .028.011.055.011.094 0 .027.008.066.008.094 0 .039.008.074.008.113v.027c0 .114.011.227.011.34a4.439 4.439 0 0 1-.215 1.293 12.274 12.274 0 0 0-.218-1.726Zm-25.856.433v-.066c0-.04 0-.067.012-.106 0-.027 0-.046.008-.074 0-.035.008-.066.008-.101 0-.028.011-.059.011-.075 0-.03.008-.066.008-.097 0-.028.012-.047.012-.074v-.02c.008-.027.008-.055.015-.082 0-.02.012-.047.012-.066 0-.008 0-.02.008-.028.012-.027.012-.047.02-.074.007-.02.007-.04.02-.066 0-.012.007-.028.007-.04.012-.027.012-.046.02-.074.007-.02.007-.039.019-.054 0-.02.008-.032.008-.047a.144.144 0 0 0 .02-.067c0-.011 0-.011.007-.02a12.7 12.7 0 0 0 .219 1.708 4.39 4.39 0 0 0-.2 1.058c-.007-.015-.019-.035-.019-.062a.391.391 0 0 0-.035-.113c-.012-.02-.012-.047-.02-.067-.007-.039-.02-.066-.027-.101v-.012c-.012-.027-.012-.047-.02-.074-.007-.028-.019-.067-.019-.094v-.008c-.008-.031-.008-.047-.02-.078-.007-.027-.007-.055-.015-.094v-.027c0-.02-.012-.047-.012-.066 0-.028-.008-.055-.008-.082v-.04c0-.02-.011-.039-.011-.054 0-.031-.008-.059-.008-.086v-.067c0-.074-.008-.148-.008-.222v-.031c-.012-.036-.012-.094-.012-.157Zm9.09 12.317c.086 0 .172 0 .246-.008.028 0 .055 0 .086-.012.035 0 .082 0 .121-.008.43.223.883.422 1.34.582.215.075.434.141.648.196-.046-.008-.101-.008-.148-.02a19.73 19.73 0 0 1-.527-.082 8.748 8.748 0 0 1-1.82-.648h.054Zm12.594-2.598c.094-.168.187-.348.262-.527.027-.067.054-.13.082-.207.02-.055.046-.11.066-.168.012-.008.012-.028.02-.035.02-.06.039-.114.066-.18.008-.008.008-.028.02-.04.019-.054.035-.109.054-.167.012-.02.012-.035.02-.047.02-.055.027-.113.047-.168.007-.02.007-.04.02-.059a.75.75 0 0 0 .034-.156c.012-.02.012-.047.02-.066.011-.047.02-.094.027-.14a4.03 4.03 0 0 0 1.305-.497c.273-.16.527-.36.75-.582a3.43 3.43 0 0 1-.16.281c-.176.27-.375.582-.57.863a8.714 8.714 0 0 1-2.063 1.895Zm-.942-20.21a4.263 4.263 0 0 0-.91-.298 13.29 13.29 0 0 0-1.535-1.136c.016 0 .035.007.055.007.02 0 .039.012.054.02.04.012.086.02.126.027.015.012.035.012.054.02.04.011.086.02.121.039.02.008.04.02.067.02.039.007.074.027.113.034.02.012.047.02.066.028.036.012.075.031.102.039.027.008.047.02.074.027a.42.42 0 0 1 .094.047c.031.02.066.027.094.047.011 0 .02.012.03.012.13.074.27.148.411.234.375.223.695.504.984.832Zm-2.84-1.735c-.019 0-.046-.008-.066-.008-.02 0-.039 0-.058-.012l-.028-.008a1.555 1.555 0 0 0-.195-.101c.066.027.14.047.207.074.047.02.094.035.148.055h-.007Zm-5.828-.852c.282-.02.555-.02.836-.012a3.97 3.97 0 0 0-.87.387 3.98 3.98 0 0 0-1.005.844.657.657 0 0 0-.093-.027c-.012 0-.02-.012-.032-.012-.062-.02-.128-.035-.187-.055-.008 0-.016 0-.016-.012-.066-.015-.133-.035-.199-.046h-.008c-.066-.016-.14-.028-.207-.047h-.008a6.988 6.988 0 0 0-1.484-.14 8.372 8.372 0 0 1 2.262-.77c.336-.036.722-.082 1.011-.11Zm-5.582 1.762.012-.008a4.381 4.381 0 0 1 1.227-.5 9.1 9.1 0 0 0-1.239.988 9.07 9.07 0 0 0-1.132.485c.328-.39.703-.711 1.132-.965Zm-.945 21.851c.309.141.61.243.899.301.496.422 1.015.805 1.539 1.133-.02 0-.04-.008-.047-.008-.028-.011-.055-.011-.086-.02-.035-.007-.063-.019-.102-.027a.553.553 0 0 0-.086-.027c-.027-.012-.062-.02-.093-.031a.673.673 0 0 1-.082-.028c-.028-.007-.06-.02-.094-.027-.028-.008-.067-.027-.094-.039-.027-.008-.059-.016-.086-.027-.035-.008-.066-.028-.101-.047-.02-.008-.047-.02-.075-.028a1.874 1.874 0 0 0-.113-.054c-.02-.012-.039-.02-.059-.032-.046-.027-.101-.054-.148-.082a.778.778 0 0 0-.074-.046 4.526 4.526 0 0 1-1.098-.91Zm14.176.88c-.066.038-.133.066-.2.105-.019.008-.034.02-.054.027a.427.427 0 0 0-.074.04c-.031.007-.059.027-.086.034-.028.012-.055.032-.086.04-.027.007-.055.027-.082.038-.027.008-.067.016-.094.036a.659.659 0 0 1-.086.027c-.027.012-.066.02-.101.031a.301.301 0 0 0-.078.028c-.036.007-.063.02-.102.027-.027.008-.055.02-.086.02-.008 0-.027.007-.035.007.441-.289.851-.629 1.246-.984.394-.14.77-.3 1.137-.488a4.55 4.55 0 0 1-1.145.976c-.027.008-.047.02-.074.035Zm-15.106-21.08a5.45 5.45 0 0 0-.261.524c-.032.066-.059.14-.086.207-.008.011-.008.027-.02.039-.02.054-.047.113-.066.176-.008.02-.016.046-.027.066-.02.047-.036.094-.055.152a.45.45 0 0 0-.028.094.541.541 0 0 0-.039.129c-.007.039-.02.066-.027.105l-.039.121c-.008.04-.02.075-.027.114-.008.035-.02.074-.028.12a.928.928 0 0 0-.027.122v.02a3.997 3.997 0 0 0-2.055 1.078l.25-.45c.18-.273.375-.554.575-.808a7.546 7.546 0 0 1 1.96-1.809Zm-3.78 5.067a9.022 9.022 0 0 0-.227 2.055c-.008.019-.016.027-.028.046-.02.028-.035.055-.047.074-.02.04-.046.075-.066.114-.008.027-.027.047-.035.074.027-.836.16-1.594.383-2.27 0-.027.011-.058.02-.093Zm7.44-7.563-.03.02c-.028 0-.063.007-.094.007.078-.027.14-.054.207-.082l.074-.03a.512.512 0 0 0-.156.085Zm12.973 1.922-.027-.02c-.055-.074-.113-.156-.18-.234l.012.012c.176.14.383.308.59.476-.121-.074-.262-.156-.395-.234ZM28.805 35.766a.36.36 0 0 0 .113.011l.027.02c.055.027.114.062.168.094-.066-.02-.133-.047-.195-.067a.45.45 0 0 0-.113-.058Zm9.465.02c-.008 0-.008 0-.02.01.059-.03.113-.066.172-.093l.027-.012h.028a.264.264 0 0 0 .101-.02c-.11.04-.215.087-.308.114Zm-12.817-22.63c-.055.074-.11.153-.168.235l-.027.02c-.14.085-.274.167-.403.253a8.07 8.07 0 0 1 .375-.328c.075-.055.149-.113.223-.18ZM20.54 25.383l.055.129v.011c.011.02.02.036.027.055v.04c0 .128.012.269.02.41l-.008-.055a1.509 1.509 0 0 1-.028-.16c-.02-.141-.039-.282-.066-.43Zm4.504 8.133c.129.093.27.18.41.254l.031.02c.055.081.121.16.176.233-.008-.011-.02-.011-.027-.02l-.02-.019c-.187-.14-.383-.308-.57-.468Zm16.613.347a3.17 3.17 0 0 0 .168-.234l.031-.02c.149-.086.29-.18.43-.273-.12.105-.242.207-.367.312-.082.075-.176.141-.262.215ZM20.52 21.836l.02-.152c.007-.047.007-.094.019-.141a8.93 8.93 0 0 1 .054-.316c-.008.148-.008.3-.008.457v.039c-.039.086-.066.16-.105.246 0-.04.012-.067.012-.106 0-.02 0-.027.008-.027Zm0 0"/>
  </g>
  <path d="M80.147 18.029a3.693 3.693 0 0 0-1.39-1.047c-.544-.25-1.173-.375-1.892-.375a4.744 4.744 0 0 0-3.578 1.578 5.562 5.562 0 0 0-1.062 1.781 6.375 6.375 0 0 0-.375 2.22c0 .823.125 1.573.375 2.25.258.679.61 1.265 1.047 1.765.437.492.953.875 1.547 1.156.601.281 1.25.422 1.937.422.781 0 1.473-.16 2.078-.485a4.145 4.145 0 0 0 1.485-1.39l3.187 2.375a6.559 6.559 0 0 1-2.797 2.281 8.632 8.632 0 0 1-3.469.734c-1.355 0-2.605-.21-3.75-.625a8.554 8.554 0 0 1-2.967-1.828c-.825-.789-1.47-1.75-1.94-2.874-.467-1.133-.702-2.395-.702-3.78 0-1.384.235-2.642.703-3.767.469-1.125 1.114-2.083 1.939-2.875.832-.79 1.82-1.399 2.969-1.829 1.144-.425 2.394-.64 3.75-.64.488 0 1 .047 1.53.14a8.553 8.553 0 0 1 1.563.438c.508.187 1 .45 1.469.781.477.324.906.719 1.281 1.188Zm4.539 6.875c0-.945.171-1.8.515-2.563a5.884 5.884 0 0 1 1.406-1.968 6.111 6.111 0 0 1 2.094-1.266 7.677 7.677 0 0 1 2.594-.438 7.57 7.57 0 0 1 2.578.438 6.107 6.107 0 0 1 2.11 1.266 5.884 5.884 0 0 1 1.405 1.968c.344.762.516 1.618.516 2.563 0 .95-.172 1.808-.515 2.578a6.045 6.045 0 0 1-1.407 1.969 6.357 6.357 0 0 1-2.11 1.265 7.57 7.57 0 0 1-2.576.438 7.677 7.677 0 0 1-2.594-.438 6.35 6.35 0 0 1-2.094-1.265 6.045 6.045 0 0 1-1.406-1.969c-.344-.77-.516-1.629-.516-2.578Zm3.671 0c0 .898.254 1.625.766 2.187.52.555 1.242.829 2.172.829.926 0 1.644-.274 2.156-.829.52-.562.781-1.289.781-2.187 0-.895-.261-1.617-.781-2.172-.512-.563-1.23-.844-2.156-.844-.93 0-1.653.281-2.172.844-.512.555-.766 1.277-.766 2.172Zm24.186 4.953c0 2.25-.57 3.957-1.703 5.125-1.137 1.164-2.86 1.75-5.172 1.75-1.062 0-2.11-.121-3.14-.36a6.941 6.941 0 0 1-2.829-1.373l2.033-3.033a7.417 7.417 0 0 0 1.78 1.111 5.068 5.068 0 0 0 2.078.422c1.125 0 1.953-.278 2.484-.829.532-.542.797-1.234.797-2.078v-1.156h-.046c-.43.574-.954.98-1.579 1.219-.624.225-1.218.342-1.78.342-.876 0-1.673-.149-2.391-.454a5.458 5.458 0 0 1-1.86-1.265 5.852 5.852 0 0 1-1.187-1.953c-.274-.749-.407-1.569-.407-2.468 0-.781.125-1.547.375-2.297a6.2 6.2 0 0 1 1.079-1.984 5.355 5.355 0 0 1 1.703-1.375c.664-.352 1.425-.531 2.28-.531.52 0 .993.058 1.423.171.437.118.828.262 1.172.438.343.18.632.375.875.594.25.218.445.437.593.656h.047v-1.578h3.375Zm-9.25-5.016c0 .387.07.758.219 1.11.145.355.352.668.625.937.27.262.578.477.922.64.351.169.742.25 1.172.25a2.63 2.63 0 0 0 1.14-.25c.364-.163.68-.378.954-.64a2.879 2.879 0 0 0 .843-2.047c0-.394-.074-.765-.219-1.109a2.964 2.964 0 0 0-.624-.938 3.341 3.341 0 0 0-.954-.656 2.688 2.688 0 0 0-1.14-.25c-.43 0-.82.086-1.172.25a3.417 3.417 0 0 0-.922.656c-.273.274-.48.586-.625.938a2.77 2.77 0 0 0-.219 1.11Zm12.192-5.89h3.531v1.625h.047c.113-.227.273-.457.484-.688.22-.226.473-.43.766-.61.29-.175.625-.32 1-.437a4.196 4.196 0 0 1 1.219-.171c.937 0 1.687.14 2.25.421.57.282 1.015.68 1.328 1.188.32.512.539 1.11.656 1.797.113.68.172 1.418.172 2.219v6.562h-3.672v-5.828c0-.344-.012-.695-.031-1.063a3.29 3.29 0 0 0-.219-1.015 1.824 1.824 0 0 0-.562-.766c-.25-.195-.618-.297-1.094-.297-.469 0-.856.09-1.156.266a1.723 1.723 0 0 0-.672.687 2.933 2.933 0 0 0-.297.97 7.41 7.41 0 0 0-.078 1.124v5.922h-3.672Zm14.102 0h3.672v11.906h-3.672Zm-.297-3.735c0-.593.207-1.097.625-1.515a2.07 2.07 0 0 1 1.516-.625c.582 0 1.082.21 1.5.625.414.418.625.922.625 1.515 0 .586-.211 1.086-.625 1.5a2.045 2.045 0 0 1-1.5.625 2.055 2.055 0 0 1-1.516-.625 2.032 2.032 0 0 1-.625-1.5Zm7.898 6.672h-2.437v-2.937h2.437v-2.094c0-.656.05-1.27.156-1.844a3.734 3.734 0 0 1 .657-1.531c.332-.445.804-.797 1.421-1.047.614-.25 1.415-.375 2.407-.375.375 0 .738.016 1.093.047.364.031.72.09 1.063.172l-.172 3.11a4.279 4.279 0 0 0-.594-.188 2.867 2.867 0 0 0-.609-.064c-.586 0-1.023.133-1.313.39-.292.25-.437.767-.437 1.548v1.875h2.719v2.937h-2.719v8.97h-3.672Zm7.342 3.016c0-.945.171-1.8.515-2.563a5.884 5.884 0 0 1 1.406-1.968 6.111 6.111 0 0 1 2.094-1.266 7.677 7.677 0 0 1 2.594-.438 7.57 7.57 0 0 1 2.578.438 6.107 6.107 0 0 1 2.11 1.266 5.884 5.884 0 0 1 1.405 1.968c.344.762.516 1.618.516 2.563 0 .95-.172 1.808-.515 2.578a6.045 6.045 0 0 1-1.407 1.969 6.357 6.357 0 0 1-2.11 1.265 7.57 7.57 0 0 1-2.576.438 7.677 7.677 0 0 1-2.594-.438 6.35 6.35 0 0 1-2.094-1.265 6.045 6.045 0 0 1-1.406-1.969c-.344-.77-.516-1.629-.516-2.578Zm3.671 0c0 .898.254 1.625.766 2.187.52.555 1.242.829 2.172.829.926 0 1.644-.274 2.156-.829.52-.562.781-1.289.781-2.187 0-.895-.261-1.617-.781-2.172-.512-.563-1.23-.844-2.156-.844-.93 0-1.653.281-2.172.844-.512.555-.766 1.277-.766 2.172Zm11.702-5.953h3.672v1.922h.047c.394-.739.859-1.29 1.39-1.657.54-.363 1.223-.546 2.047-.546.207 0 .414.011.625.03.219.012.414.04.594.079v3.36a5.063 5.063 0 0 0-1.563-.25c-.71 0-1.265.1-1.671.296-.407.2-.72.477-.938.828a3.14 3.14 0 0 0-.438 1.25 12.927 12.927 0 0 0-.093 1.625v4.969h-3.672Zm22.45 10.906c0 2.25-.57 3.957-1.703 5.125-1.137 1.164-2.86 1.75-5.172 1.75-1.062 0-2.11-.121-3.14-.36a6.941 6.941 0 0 1-2.829-1.373l2.033-3.033a7.417 7.417 0 0 0 1.78 1.111 5.068 5.068 0 0 0 2.078.422c1.125 0 1.953-.278 2.484-.829.532-.542.797-1.234.797-2.078v-1.156h-.046c-.43.574-.954.98-1.579 1.219-.624.225-1.218.342-1.78.342-.876 0-1.673-.149-2.391-.454a5.458 5.458 0 0 1-1.86-1.265 5.852 5.852 0 0 1-1.187-1.953c-.274-.749-.407-1.569-.407-2.468 0-.781.125-1.547.375-2.297a6.2 6.2 0 0 1 1.079-1.984 5.355 5.355 0 0 1 1.703-1.375c.664-.352 1.425-.531 2.28-.531.52 0 .993.058 1.423.171.437.118.828.262 1.172.438.343.18.632.375.875.594.25.218.445.437.593.656h.047v-1.578h3.375Zm-9.25-5.016c0 .387.07.758.219 1.11.145.355.352.668.625.937.27.262.578.477.922.64.351.169.742.25 1.172.25a2.63 2.63 0 0 0 1.14-.25c.364-.163.68-.378.954-.64a2.879 2.879 0 0 0 .843-2.047c0-.394-.074-.765-.219-1.109a2.964 2.964 0 0 0-.624-.938 3.341 3.341 0 0 0-.954-.656 2.688 2.688 0 0 0-1.14-.25c-.43 0-.82.086-1.172.25a3.417 3.417 0 0 0-.922.656c-.273.274-.48.586-.625.938a2.77 2.77 0 0 0-.219 1.11Zm23.458 3.953a6.051 6.051 0 0 1-2.235 1.75 6.677 6.677 0 0 1-2.781.61 7.677 7.677 0 0 1-2.594-.438 6.518 6.518 0 0 1-2.11-1.265 6.045 6.045 0 0 1-1.405-1.969c-.336-.77-.5-1.629-.5-2.578 0-.945.164-1.8.5-2.563a5.884 5.884 0 0 1 1.406-1.968 6.255 6.255 0 0 1 2.11-1.266 7.677 7.677 0 0 1 2.593-.438c.844 0 1.61.149 2.297.438a4.762 4.762 0 0 1 1.765 1.266c.489.543.864 1.199 1.125 1.968.258.762.391 1.618.391 2.563v1.156h-8.516c.145.7.461 1.258.954 1.672.488.418 1.093.625 1.812.625.602 0 1.113-.133 1.531-.406a4.09 4.09 0 0 0 1.078-1.031Zm-3.11-5.234a2.158 2.158 0 0 0-.625-1.594c-.418-.437-.96-.656-1.625-.656-.406 0-.766.07-1.078.203a2.493 2.493 0 0 0-.797.5c-.219.2-.39.434-.516.703a2.157 2.157 0 0 0-.203.844Zm0 0" fill="#1C2120"/>
</svg>
